<svg width="26" height="19" viewBox="0 0 26 19" fill="none" xmlns="http://www.w3.org/2000/svg">
<path d="M22.4305 0C22.4305 0 4.50415 0 2.90284 0H0V16.0972V19H22.4305H25.3333V0H22.4305Z" fill="#A1A8CA"/>
<path d="M10.5552 6.86119C10.5552 8.3185 9.37392 9.50001 7.91641 9.50001C6.4589 9.50001 5.27759 8.3185 5.27759 6.86119C5.27759 5.40368 6.4589 4.22217 7.91641 4.22217C9.37392 4.22217 10.5552 5.40368 10.5552 6.86119Z" fill="white"/>
<path d="M9.76391 10.5553H6.06959C4.46828 10.5553 3.16675 11.8568 3.16675 13.4581V13.986C3.16675 14.423 3.52141 14.7776 3.95841 14.7776H11.8751C12.3121 14.7776 12.6667 14.423 12.6667 13.986V13.4581C12.6667 11.8568 11.3652 10.5553 9.76391 10.5553Z" fill="white"/>
<path d="M21.3747 6.33333H15.5693C15.1323 6.33333 14.7776 5.97867 14.7776 5.54167C14.7776 5.10467 15.1323 4.75 15.5693 4.75H21.3747C21.8117 4.75 22.1664 5.10467 22.1664 5.54167C22.1664 5.97867 21.8117 6.33333 21.3747 6.33333Z" fill="white"/>
<path d="M21.3747 10.5555H15.5693C15.1323 10.5555 14.7776 10.2008 14.7776 9.76383C14.7776 9.32683 15.1323 8.97217 15.5693 8.97217H21.3747C21.8117 8.97217 22.1664 9.32683 22.1664 9.76383C22.1664 10.2008 21.8117 10.5555 21.3747 10.5555Z" fill="white"/>
<path d="M21.3747 14.778H15.5693C15.1323 14.778 14.7776 14.4234 14.7776 13.9864C14.7776 13.5494 15.1323 13.1947 15.5693 13.1947H21.3747C21.8117 13.1947 22.1664 13.5494 22.1664 13.9864C22.1664 14.4234 21.8117 14.778 21.3747 14.778Z" fill="white"/>
</svg>
