<svg width="51" height="48" viewBox="0 0 51 48" fill="none" xmlns="http://www.w3.org/2000/svg">
<path d="M1.22501 4.50431H37.6046C40.3467 4.50431 42.5889 6.74655 42.5889 9.48859V41.2835L37.0972 46.7752H6.71671L1.22501 41.2835V9.41882V4.50431Z" stroke="#8899AA" stroke-width="2.45002"/>
<path d="M19.4361 33.3779L20.3046 34.2464L21.1708 33.3756L33.418 21.0633L42.5889 30.2958V36.6977V46.7053H37.6046H37.5843H37.5634H37.542H37.52H37.4975H37.4744H37.4508H37.4266H37.4019H37.3766H37.3508H37.3244H37.2976H37.2702H37.2422H37.2138H37.1848H37.1553H37.1253H37.0947H37.0636H37.0321H37H36.9674H36.9343H36.9007H36.8666H36.832H36.7969H36.7613H36.7252H36.6887H36.6516H36.6141H36.576H36.5375H36.4985H36.4591H36.4192H36.3788H36.3379H36.2966H36.2548H36.2125H36.1698H36.1266H36.083H36.0389H35.9944H35.9494H35.904H35.8581H35.8118H35.765H35.7179H35.6703H35.6222H35.5738H35.5249H35.4755H35.4258H35.3756H35.3251H35.2741H35.2227H35.1709H35.1187H35.066H35.013H34.9596H34.9058H34.8515H34.7969H34.7419H34.6865H34.6308H34.5746H34.5181H34.4612H34.4039H34.3462H34.2881H34.2297H34.171H34.1118H34.0523H33.9924H33.9322H33.8716H33.8107H33.7494H33.6878H33.6258H33.5635H33.5008H33.4378H33.3745H33.3108H33.2468H33.1825H33.1178H33.0528H32.9875H32.9219H32.856H32.7897H32.7231H32.6562H32.589H32.5215H32.4537H32.3856H32.3172H32.2485H32.1795H32.1102H32.0407H31.9708H31.9007H31.8302H31.7595H31.6885H31.6173H31.5457H31.4739H31.4018H31.3295H31.2569H31.184H31.1109H31.0375H30.9638H30.89H30.8158H30.7414H30.6668H30.5919H30.5168H30.4414H30.3658H30.29H30.214H30.1377H30.0612H29.9844H29.9075H29.8303H29.7529H29.6753H29.5975H29.5195H29.4412H29.3628H29.2841H29.2053H29.1263H29.047H28.9676H28.888H28.8081H28.7282H28.648H28.5676H28.4871H28.4063H28.3255H28.2444H28.1631H28.0817H28.0002H27.9184H27.8366H27.7545H27.6723H27.5899H27.5074H27.4248H27.342H27.259H27.1759H27.0927H27.0093H26.9258H26.8422H26.7584H26.6745H26.5905H26.5064H26.4221H26.3377H26.2532H26.1686H26.0839H25.9991H25.9141H25.8291H25.744H25.6587H25.5734H25.4879H25.4024H25.3168H25.2311H25.1453H25.0594H24.9735H24.8875H24.8014H24.7152H24.6289H24.5426H24.4562H24.3698H24.2833H24.1967H24.1101H24.0234H23.9366H23.8498H23.763H23.6761H23.5892H23.5022H23.4152H23.3282H23.2411H23.154H23.0669H22.9797H22.8926H22.8054H22.7181H22.6309H22.5436H22.4564H22.3691H22.2818H22.1945H22.1072H22.0199H21.9326H21.8453H21.758H21.6708H21.5835H21.4963H21.409H21.3218H21.2346H21.1474H21.0603H20.9732H20.8861H20.799H20.712H20.625H20.538H20.4511H20.3643H20.2774H20.1907H20.1039H20.0173H19.9307H19.8441H19.7576H19.6712H19.5848H19.4985H19.4123H19.3261H19.2401H19.1541H19.0681H18.9823H18.8965H18.8108H18.7253H18.6398H18.5544H18.4691H18.3838H18.2987H18.2137H18.1288H18.044H17.9593H17.8748H17.7903H17.706H17.6217H17.5376H17.4537H17.3698H17.2861H17.2025H17.119H17.0357H16.9525H16.8695H16.7866H16.7038H16.6212H16.5387H16.4564H16.3743H16.2923H16.2104H16.1287H16.0472H15.9659H15.8847H15.8037H15.7228H15.6422H15.5617H15.4814H15.4013H15.3213H15.2416H15.162H15.0826H15.0035H14.9245H14.8457H14.7671H14.6888H14.6106H14.5326H14.4549H14.3773H14.3H14.2229H14.146H14.0694H13.9929H13.9167H13.8407H13.765H13.6895H13.6142H13.5391H13.4643H13.3898H13.3155H13.2414H13.1676H13.094H13.0207H12.9477H12.8749H12.8024H12.7301H12.6581H12.5864H12.5149H12.4438H12.3729H12.3022H12.2319H12.1618H12.0921H12.0226H11.9534H11.8845H11.8159H11.7476H11.6795H11.6118H11.5444H11.4773H11.4105H11.3441H11.2779H11.2121H11.1465H11.0813H11.0164H10.9519H10.8877H10.8238H10.7602H10.697H10.6341H10.5715H10.5093H10.4474H10.3859H10.3247H10.2639H10.2035H10.1434H10.0836H10.0242H9.96518H9.90652H9.84823H9.7903H9.73275H9.67557H9.61878H9.56236H9.50632H9.45067H9.3954H9.34052H9.28604H9.23195H9.17825H9.12495H9.07206H9.01956H8.96747H8.91579H8.86452H8.81367H8.76322H8.7132H8.66359H8.61441H8.56565H8.51732H8.46941H8.42194H8.3749H8.3283H8.28213H8.23641H8.19113H8.14629H8.1019H8.05797H8.01448H7.97145H7.92888H7.88677H7.84511H7.80393H7.7632H7.72295H7.68317H7.64386H7.60503H7.56668H7.52881H7.49142H7.45451H7.4181H7.38217H7.34674H7.3118H7.27736H7.24341H7.20997H7.17703H7.1446H7.11268H7.08127H7.05038H7.01999H6.99013H6.96079H6.93197H6.90368H6.87591H6.84867H6.82197H6.7958H6.77017H6.74507H6.72052H6.69651H6.67305H6.65014H6.62778H6.60597H6.58472H6.56403H6.54389H6.52432H6.50532H6.48688H6.46901H6.45171H6.43499H6.41885H6.40329H6.3883H6.3739H6.36009H6.34687H6.33423H6.32219H6.31075H6.2999H6.28966H6.28001H6.27097H6.26254H6.25472H6.24752H6.24092H6.23494H6.22959H6.22485H6.22074H6.21725H6.21439H6.21217H6.21057H6.20962C6.2094 46.7053 6.2093 46.7053 6.2093 47.9303V46.7053H1.22501V46.6916V46.6668V46.642V46.617V46.5921V46.567V46.5419V46.5167V46.4914V46.4661V46.4407V46.4153V46.3898V46.3642V46.3386V46.3129V46.2871V46.2613V46.2354V46.2094V46.1834V46.1573V46.1312V46.105V46.0788V46.0525V46.0261V45.9997V45.9732V45.9467V45.9201V45.8935V45.8668V45.84V45.8132V45.7864V45.7595V45.7325V45.7055V45.6785V45.6514V45.6242V45.597V45.5698V45.5425V45.5152V45.4878V45.4604V45.4329V45.4054V45.3778V45.3502V45.3225V45.2948V45.2671V45.2393V45.2115V45.1837V45.1558V45.1278V45.0999V45.0719V45.0438V45.0157V44.9876V44.9594V44.9313V44.903V44.8748V44.8465V44.8182V44.7898V44.7614V44.733V44.7045V44.6761V44.6475V44.619V44.5904V44.5618V44.5332V44.5046V44.4759V44.4472V44.4184V44.3897V44.3609V44.3321V44.3033V44.2744V44.2456V44.2167V44.1878V44.1588V44.1299V44.1009V44.0719V44.0429V44.0139V43.9848V43.9558V43.9267V43.8976V43.8685V43.8394V43.8103V43.7811V43.7519V43.7228V43.6936V43.6644V43.6352V43.606V43.5767V43.5475V43.5183V43.489V43.4598V43.4305V43.4012V43.372V43.3427V43.3134V43.2841V43.2548V43.2255V43.1962V43.1669V43.1376V43.1083V43.079V43.0497V43.0204V42.9911V42.9618V42.9325V42.9032V42.8739V42.8446V42.8154V42.7861V42.7568V42.7276V42.6983V42.6691V42.6398V42.6106V42.5814V42.5522V42.523V42.4938V42.4646V42.4354V42.4063V42.3771V42.348V42.3189V42.2898V42.2607V42.2316V42.2026V42.1735V42.1445V42.1155V42.0865V42.0576V42.0286V41.9997V41.9708V41.9419V41.913V41.8842V41.8554V41.8266V41.7978V41.7691V41.7404V41.7117V41.683V41.6543V41.6257V41.5971V41.5686V41.5401V41.5116V41.4831V41.4546V41.4262V41.3979V41.3695V41.3412V41.3129V41.2847V41.2565V41.2283V41.2001V41.172V41.144V41.1159V41.0879V41.06V41.032V41.0042V40.9763V40.9485V40.9208V40.893V40.8654V40.8377V40.8101V40.7826V40.7551V40.7276V40.7002V40.6728V40.6455V40.6183V40.591V40.5638V40.5367V40.5096V40.4826V40.4556V40.4287V40.4018V40.375V40.3482V40.3215V40.2948V40.2682V40.2416V40.2151V40.1887V40.1623V40.1359V40.1096V40.0834V40.0572V40.0311V40.0051V39.9791V39.9532V39.9273V39.9015V39.8757V39.8501V39.8244V39.7989V39.7734V39.748V39.7226V39.6973V39.6721V39.6469V39.6218V39.5968V39.5718V39.547V39.5221V39.4974V39.4727V39.4481V39.4236V39.3991V39.3747V39.3504V39.3262V39.302V39.2779V39.2539V39.23V39.2061V39.1823V39.1586V39.135V39.1114V39.0879V39.0646V39.0412V39.018V38.9949V38.9718V38.9488V38.9259V38.9031V38.8804V38.8577V38.8352V38.8127V38.7903V38.768V38.7458V38.7237V38.7016V38.6797V38.6578V38.6361V38.6144V38.5928V38.5713V38.5499V38.5286V38.5074V38.4863V38.4653V38.4443V38.4235V38.4028V38.3821V38.3616V38.3411V38.3208V38.3006V38.2804V38.2604V38.2404V38.2206V38.2008V38.1812V38.1617V38.1422V38.1229V38.1037V38.0846V38.0655V38.0466V38.0278V38.0092V37.9906V37.9721V37.9537V37.9355V37.9173V37.8993V37.8814V37.8635V37.8458V37.8283V37.8108V37.7934V37.7762V37.759V37.742V37.7251V37.7083V37.6917V37.6751V37.6587V37.6424V37.6262V37.6101V37.5942V37.5783V37.5626V37.547V37.5316V37.5162V37.501V37.4859V37.471V37.4561V37.4414V37.4268V37.4123V37.398V37.3838V37.3697V37.3558V37.3419V37.3283V37.3147V37.3013V37.288V37.2748V37.2618V37.2489V37.2361V37.2235V37.211V37.1986V37.1864V37.1743V37.1624V37.1506V37.1389V37.1274V37.116V37.1047V37.0936V37.0826V37.0718V37.0611V37.0506V37.0402V37.0299V37.0198V37.0098V37V36.9903V36.9808V36.9714V36.9622V36.9531V36.9442V36.9354V36.9268V36.9183V36.9099V36.9018V36.8937V36.8858V36.8781V36.8705V36.8631V36.8559V36.8488V36.8418V36.835V36.8284V36.8219V36.8156V36.8094V36.8034V36.7975V36.7919V36.7863V36.781V36.7758V36.7707V36.7659V36.7611V36.7566V36.7522V36.748V36.7439V36.7401V36.7363V36.7328V36.7294V36.7262V36.7231V36.7203V36.7176V36.715V36.7127V36.7105V36.7084V36.7066V36.7049V36.7034V36.7021V36.7009V36.7V36.6992V36.6986V36.6981V36.6978L0 36.6977H1.22501V34.9028L11.093 25.0349L19.4361 33.3779Z" fill="#F3F5F7" stroke="#8899AA" stroke-width="2.45002"/>
<path d="M48.9295 10.0465C48.9295 14.9185 44.98 18.868 40.108 18.868C35.2361 18.868 31.2865 14.9185 31.2865 10.0465C31.2865 5.17453 35.2361 1.22501 40.108 1.22501C44.98 1.22501 48.9295 5.17453 48.9295 10.0465Z" fill="white" stroke="#8899AA" stroke-width="2.45002"/>
<path d="M20.6951 19.4146C20.6951 20.4675 19.8415 21.321 18.7886 21.321C17.7358 21.321 16.8822 20.4675 16.8822 19.4146C16.8822 18.3617 17.7358 17.5082 18.7886 17.5082C19.8415 17.5082 20.6951 18.3617 20.6951 19.4146Z" stroke="#8899AA" stroke-width="2.45002"/>
<path d="M35.2844 11.3628C34.517 11.3628 33.8193 10.7349 33.8193 9.89773C33.8193 9.06052 34.4472 8.43262 35.2844 8.43262H44.7728C45.61 8.43262 46.2379 9.06052 46.2379 9.89773C46.2379 10.7349 45.61 11.3628 44.7728 11.3628H35.2844Z" fill="#19DC76"/>
<path d="M41.4937 14.6415C41.4937 15.4787 40.8658 16.1066 40.0286 16.1066C39.1914 16.1066 38.5635 15.4787 38.5635 14.6415V5.22293C38.5635 4.45549 39.1914 3.75781 40.0286 3.75781C40.796 3.75781 41.4937 4.38572 41.4937 5.22293V14.6415Z" fill="#19DC76"/>
</svg>
