<svg width="55" height="55" viewBox="0 0 55 55" fill="none" xmlns="http://www.w3.org/2000/svg">
<path d="M36.6666 0C26.5578 0 18.3333 8.22454 18.3333 18.3334C18.3333 19.5374 18.4642 20.7727 18.7227 22.0136L16.6749 23.0375C16.3458 23.2019 16.1154 23.5153 16.0561 23.8789C15.9968 24.2425 16.1166 24.6119 16.3773 24.8726L17.8589 26.3541L16.713 27.5H14.8958C14.2624 27.5 13.7499 28.0125 13.7499 28.6459V30.4631L12.1296 32.0834H10.3125C9.67914 32.0834 9.16663 32.5959 9.16663 33.2292V35.0465L7.54639 36.6666H5.72913C5.09577 36.6666 4.58326 37.1791 4.58326 37.8125V39.6298L0.335693 43.8773C0.12085 44.0922 0 44.3831 0 44.6875V53.8541C0 54.4875 0.51251 55 1.14587 55H10.3125C10.6168 55 10.9078 54.8792 11.1227 54.6643L28.6459 37.1411L30.1274 38.6227C30.3871 38.8834 30.7575 39.0054 31.1211 38.9439C31.4847 38.8846 31.7981 38.654 31.9625 38.3251L32.9864 36.2773C44.645 38.7076 55 29.6462 55 18.3334C55 8.22454 46.7756 0 36.6666 0ZM32.6507 33.8468C32.1315 33.7148 31.582 33.961 31.3403 34.4444L30.6231 35.8778L29.4559 34.7107C29.0083 34.2631 28.2832 34.2631 27.8357 34.7107L9.83802 52.7084H2.29163V45.162L6.53931 40.9143C6.75415 40.6995 6.875 40.4086 6.875 40.1041V38.9583H8.02087C8.3252 38.9583 8.6162 38.8374 8.83105 38.6226L11.1227 36.3309C11.3375 36.1161 11.4584 35.8252 11.4584 35.5208V34.375H12.6042C12.9086 34.375 13.1996 34.2542 13.4144 34.0393L15.706 31.7477C15.9209 31.5328 16.0417 31.2419 16.0417 30.9375V29.7916H17.1875C17.4918 29.7916 17.7828 29.6708 17.9977 29.4559L20.2893 27.1643C20.7369 26.7167 20.7369 25.9916 20.2893 25.5441L19.1222 24.3769L20.5556 23.6597C21.039 23.418 21.2875 22.8719 21.1532 22.3493C20.803 20.9886 20.625 19.638 20.625 18.3334C20.625 9.48782 27.8212 2.29174 36.6666 2.29174C45.5121 2.29174 52.7083 9.48793 52.7083 18.3334C52.7084 28.4836 43.2362 36.5726 32.6507 33.8468Z" fill="#2A6FDB"/>
<path d="M42.3959 6.875C39.237 6.875 36.6667 9.44528 36.6667 12.6041C36.6667 15.763 39.237 18.3333 42.3959 18.3333C45.5547 18.3333 48.125 15.7631 48.125 12.6041C48.125 9.44518 45.5547 6.875 42.3959 6.875ZM42.3959 16.0416C40.5003 16.0416 38.9584 14.4997 38.9584 12.6041C38.9584 10.7086 40.5003 9.16663 42.3959 9.16663C44.2914 9.16663 45.8334 10.7086 45.8334 12.6041C45.8334 14.4997 44.2914 16.0416 42.3959 16.0416Z" fill="#2A6FDB"/>
<path d="M23.2523 30.1274L7.21066 46.1691C6.76303 46.6167 6.76303 47.3418 7.21066 47.7893C7.43442 48.0131 7.72768 48.125 8.02083 48.125C8.31399 48.125 8.60714 48.0131 8.83101 47.7893L24.8726 31.7477C25.3203 31.3001 25.3203 30.575 24.8726 30.1275C24.425 29.6799 23.6999 29.6799 23.2523 30.1274Z" fill="#2A6FDB"/>
</svg>
