<svg width="74" height="48" viewBox="0 0 74 48" fill="none" xmlns="http://www.w3.org/2000/svg">
<path d="M11.3335 47H9.22241V44V4.20344L10.5821 1H11.3335H42.4446H52.6351H61.1113H63.2224V4V44V47H61.1113V48C61.1113 47 61.1111 47 61.1107 47H61.1091H61.1063H61.1024H61.0974H61.0913H61.0841H61.0758H61.0664H61.056H61.0445H61.0319H61.0182H61.0035H60.9877H60.9708H60.9529H60.934H60.914H60.893H60.8709H60.8479H60.8237H60.7986H60.7725H60.7453H60.7171H60.688H60.6578H60.6266H60.5945H60.5613H60.5272H60.4921H60.456H60.419H60.381H60.342H60.3021H60.2612H60.2194H60.1767H60.133H60.0883H60.0428H59.9963H59.9489H59.9005H59.8513H59.8012H59.7501H59.6982H59.6453H59.5916H59.537H59.4815H59.4251H59.3678H59.3097H59.2507H59.1909H59.1302H59.0686H59.0063H58.943H58.8789H58.814H58.7483H58.6817H58.6143H58.5461H58.4771H58.4073H58.3366H58.2652H58.193H58.12H58.0462H57.9716H57.8962H57.8201H57.7432H57.6655H57.5871H57.5079H57.428H57.3473H57.2659H57.1837H57.1008H57.0172H56.9328H56.8478H56.762H56.6755H56.5883H56.5003H56.4117H56.3224H56.2324H56.1417H56.0504H55.9583H55.8656H55.7722H55.6781H55.5834H55.4881H55.392H55.2954H55.1981H55.1001H55.0015H54.9023H54.8025H54.702H54.6009H54.4992H54.3969H54.294H54.1905H54.0864H53.9817H53.8764H53.7706H53.6641H53.5571H53.4496H53.3414H53.2327H53.1234H53.0136H52.9033H52.7924H52.6809H52.5689H52.4564H52.3434H52.2298H52.1158H52.0012H51.8861H51.7705H51.6544H51.5378H51.4207H51.3031H51.1851H51.0665H50.9475H50.8281H50.7081H50.5877H50.4668H50.3455H50.2238H50.1016H49.9789H49.8559H49.7324H49.6084H49.4841H49.3593H49.2341H49.1085H48.9825H48.8561H48.7293H48.6021H48.4746H48.3466H48.2183H48.0896H47.9605H47.8311H47.7013H47.5711H47.4406H47.3097H47.1785H47.047H46.9151H46.7829H46.6504H46.5175H46.3843H46.2508H46.117H45.9829H45.8485H45.7138H45.5789H45.4436H45.308H45.1722H45.0361H44.8997H44.7631H44.6261H44.489H44.3516H44.2139H44.076H43.9378H43.7995H43.6608H43.522H43.3829H43.2437H43.1042H42.9645H42.8246H42.6845H42.5441H42.4037H42.263H42.1221H41.9811H41.8398H41.6985H41.5569H41.4152H41.2733H41.1313H40.9891H40.8468H40.7043H40.5617H40.419H40.2762H40.1332H39.9901H39.8469H39.7036H39.5602H39.4166H39.273H39.1293H38.9855H38.8417H38.6977H38.5537H38.4096H38.2654H38.1212H37.9769H37.8325H37.6882H37.5437H37.3993H37.2547H37.1102H36.9656H36.8211H36.6764H36.5318H36.3872H36.2426H36.0979H35.9533H35.8087H35.6641H35.5195H35.3749H35.2304H35.0858H34.9413H34.7969H34.6525H34.5081H34.3638H34.2196H34.0754H33.9313H33.7872H33.6432H33.4993H33.3555H33.2118H33.0681H32.9246H32.7811H32.6378H32.4945H32.3514H32.2084H32.0655H31.9227H31.7801H31.6376H31.4952H31.353H31.2109H31.069H30.9272H30.7856H30.6441H30.5029H30.3617H30.2208H30.0801H29.9395H29.7991H29.659H29.519H29.3792H29.2396H29.1003H28.9611H28.8222H28.6835H28.5451H28.4068H28.2688H28.1311H27.9936H27.8563H27.7193H27.5826H27.4461H27.3099H27.174H27.0383H26.903H26.7679H26.6331H26.4986H26.3644H26.2304H26.0969H25.9636H25.8306H25.698H25.5656H25.4336H25.302H25.1706H25.0397H24.909H24.7787H24.6488H24.5193H24.39H24.2612H24.1327H24.0047H23.8769H23.7496H23.6227H23.4962H23.37H23.2443H23.119H22.994H22.8695H22.7455H22.6218H22.4986H22.3758H22.2534H22.1315H22.01H21.889H21.7685H21.6483H21.5287H21.4095H21.2908H21.1726H21.0549H20.9376H20.8208H20.7046H20.5888H20.4735H20.3588H20.2445H20.1308H20.0175H19.9048H19.7927H19.681H19.57H19.4594H19.3494H19.2399H19.131H19.0227H18.9149H18.8077H18.7011H18.595H18.4895H18.3846H18.2803H18.1766H18.0735H17.971H17.869H17.7678H17.6671H17.567H17.4676H17.3688H17.2706H17.1731H17.0762H16.9799H16.8843H16.7894H16.6951H16.6014H16.5085H16.4162H16.3246H16.2337H16.1434H16.0539H15.965H15.8769H15.7894H15.7026H15.6166H15.5313H15.4467H15.3628H15.2796H15.1972H15.1155H15.0346H14.9544H14.8749H14.7962H14.7183H14.6411H14.5647H14.4891H14.4142H14.3402H14.2669H14.1944H14.1227H14.0517H13.9816H13.9123H13.8438H13.7762H13.7093H13.6433H13.5781H13.5137H13.4502H13.3875H13.3256H13.2646H13.2045H13.1452H13.0868H13.0292H12.9725H12.9167H12.8618H12.8077H12.7546H12.7023H12.651H12.6005H12.5509H12.5023H12.4546H12.4077H12.3619H12.3169H12.2729H12.2298H12.1876H12.1464H12.1062H12.0669H12.0285H11.9911H11.9547H11.9193H11.8848H11.8513H11.8188H11.7873H11.7568H11.7273H11.6988H11.6712H11.6447H11.6193H11.5948H11.5713H11.5489H11.5275H11.5072H11.4879H11.4696H11.4524H11.4362H11.4211H11.4071H11.3941H11.3822H11.3714H11.3616H11.353H11.3454H11.3389H11.3335Z" fill="#F3F5F7" stroke="#8899AA" stroke-width="2"/>
<path d="M33.1806 13.8961L33.1699 13.9145L33.16 13.9332L32.597 15H31.5555H5.11101H3.34832H2.52085L10.5008 1H40.7033L33.1806 13.8961Z" fill="white" stroke="#8899AA" stroke-width="2"/>
<path d="M52.0637 13.8961L52.0743 13.9145L52.0843 13.9332L52.6473 15H53.6888H69.0932H70.8559H71.6834L63.7034 1H44.5409L52.0637 13.8961Z" fill="white" stroke="#8899AA" stroke-width="2"/>
<path d="M42.5079 0.698486V47.4921" stroke="#8899AA" stroke-width="2"/>
</svg>
