<svg width="40" height="57" viewBox="0 0 40 57" xmlns="http://www.w3.org/2000/svg">
    <path d="M27.9796 1L28.4502 1.88235C28.9069 1.63875 29.1023 1.08684 28.9005 0.610142C28.6987 0.133445 28.1664 -0.110436 27.6736 0.0479714L27.9796 1ZM24.4312 13.4194L23.8065 14.2002L24.4312 13.4194ZM19.7001 56L19.5708 56.9916C19.6712 57.0047 19.7731 57.0025 19.8729 56.985L19.7001 56ZM12.6033 16.9677L12.1561 17.8622L13.7477 18.6579L13.5999 16.8847L12.6033 16.9677ZM3.73227 19.9247L2.83784 19.4775C2.63031 19.8926 2.73559 20.3959 3.09209 20.693L3.73227 19.9247ZM4.32367 31.7527L3.49162 31.198L4.32367 31.7527ZM27.509 0.117647C25.8934 0.979292 23.3841 3.04437 22.025 5.57559C21.337 6.8568 20.9051 8.33077 21.1147 9.86451C21.3274 11.4219 22.1826 12.9011 23.8065 14.2002L25.0559 12.6385C23.7591 11.601 23.2278 10.5567 23.0963 9.59377C22.9615 8.6072 23.2273 7.5641 23.787 6.52173C24.9232 4.40582 27.1088 2.59777 28.4502 1.88235L27.509 0.117647ZM23.8065 14.2002C25.9275 15.897 28.7821 18.994 31.3459 22.7941C33.9089 26.5932 36.1301 31.0198 37.0554 35.3617C37.9788 39.6945 37.5966 43.847 35.1009 47.2595C32.5946 50.6865 27.8167 53.5608 19.5273 55.015L19.8729 56.985C28.4384 55.4822 33.7882 52.4425 36.7153 48.4401C39.6531 44.4231 40.0101 39.6308 39.0115 34.9448C38.0147 30.2678 35.6526 25.6017 33.0039 21.6756C30.3559 17.7506 27.3704 14.4901 25.0559 12.6385L23.8065 14.2002ZM27.6736 0.0479714C26.3156 0.484466 24.7267 0.781163 22.8278 1.28034C21.0041 1.75976 19.0344 2.39865 17.2607 3.47082C15.4715 4.55233 13.879 6.07648 12.8263 8.30765C11.778 10.5294 11.3006 13.3762 11.6068 17.0508L13.5999 16.8847C13.3147 13.4625 13.7736 10.9868 14.635 9.16109C15.492 7.34489 16.7825 6.09686 18.2953 5.18241C19.8236 4.25861 21.5747 3.67774 23.3363 3.21462C25.0228 2.77126 26.8837 2.40263 28.2856 1.95203L27.6736 0.0479714ZM13.0505 16.0733C11.9217 15.5089 10.0828 15.0036 8.15596 15.3153C6.16709 15.637 4.1664 16.8204 2.83784 19.4775L4.6267 20.3719C5.66374 18.2979 7.1129 17.51 8.47533 17.2896C9.89978 17.0592 11.3136 17.4409 12.1561 17.8622L13.0505 16.0733ZM3.09209 20.693C4.59374 21.9443 5.24571 23.7066 5.24571 25.6169C5.24571 27.5437 4.57631 29.571 3.49162 31.198L5.15572 32.3074C6.43662 30.386 7.24571 27.9778 7.24571 25.6169C7.24571 23.2397 6.41919 20.8621 4.37246 19.1565L3.09209 20.693ZM3.49162 31.198C2.98374 31.9598 1.96739 33.6798 1.16221 35.8988C0.359012 38.1125 -0.259048 40.8913 0.10884 43.7384C0.4812 46.62 1.85891 49.5171 4.94242 51.9043C7.99726 54.2693 12.6693 56.0914 19.5708 56.9916L19.8295 55.0084C13.1288 54.1344 8.84112 52.3933 6.16677 50.3228C3.52109 48.2746 2.40012 45.8639 2.09235 43.4821C1.78011 41.0657 2.30047 38.6254 3.04228 36.581C3.78211 34.542 4.71736 32.9649 5.15572 32.3074L3.49162 31.198Z"/>
    <path d="M19.6999 25.8387L19.896 24.8582C19.5427 24.7875 19.1787 24.9123 18.9432 25.185C18.7077 25.4576 18.637 25.8358 18.7581 26.1751L19.6999 25.8387ZM20.2913 56L20.0487 56.9702C20.256 57.022 20.4745 57.0061 20.672 56.9247L20.2913 56ZM14.3773 36.4839L14.1026 35.5224C13.9795 35.5575 13.8644 35.616 13.7633 35.6946L14.3773 36.4839ZM19.5038 26.8193C20.0351 26.9256 20.7735 27.2816 21.6496 27.9359C22.51 28.5786 23.4406 29.462 24.3534 30.5343C26.1821 32.6826 27.8812 35.5202 28.7964 38.5475C29.711 41.5728 29.8246 44.7184 28.5954 47.5642C27.3728 50.3944 24.7564 53.08 19.9105 55.0754L20.672 56.9247C25.8799 54.7803 28.9557 51.7736 30.4314 48.3573C31.9004 44.9564 31.7183 41.301 30.7109 37.9687C29.704 34.6385 27.8548 31.5621 25.8763 29.2379C24.8856 28.074 23.8479 27.0816 22.8464 26.3335C21.8605 25.5972 20.8432 25.0476 19.896 24.8582L19.5038 26.8193ZM18.7581 26.1751C19.1995 27.4108 19.4834 29.3744 18.9345 31.1984C18.4075 32.9496 17.0895 34.669 14.1026 35.5224L14.652 37.4454C18.2887 36.4064 20.1249 34.1831 20.8497 31.7748C21.5525 29.4393 21.1859 27.0265 20.6416 25.5024L18.7581 26.1751ZM13.7633 35.6946C10.997 37.8462 9.29602 40.1034 8.53204 42.3748C7.76179 44.6647 7.973 46.8866 8.88499 48.8764C10.6818 52.7967 15.143 55.7437 20.0487 56.9702L20.5338 55.0299C15.9772 53.8907 12.159 51.2195 10.7031 48.0431C9.98877 46.4845 9.83034 44.7883 10.4277 43.0124C11.0313 41.2179 12.435 39.2614 14.9912 37.2733L13.7633 35.6946Z"/>
</svg>
