<svg width="44" height="56" viewBox="0 0 44 56" xmlns="http://www.w3.org/2000/svg">
    <path d="M42.2411 54.068H4.44924C2.89574 54.068 1.63183 52.8041 1.63183 51.2506V4.44913C1.63183 2.89574 2.89563 1.63183 4.44924 1.63183H31.0387C31.1486 1.63183 31.2567 1.64282 31.3629 1.66066V7.2462C31.3629 9.69949 33.3589 11.6953 35.812 11.6953H41.3976C41.4154 11.8016 41.4264 11.9096 41.4264 12.0195V54.8021C41.4264 55.2527 41.7917 55.618 42.2423 55.618C42.6929 55.618 43.0582 55.2527 43.0582 54.8021V12.0195C43.0582 11.0664 42.6871 10.1702 42.0131 9.49627L33.5619 1.04513C32.8879 0.371187 31.9918 0 31.0386 0H4.44924C1.99584 0 0 1.99595 0 4.44913V51.2506C0 53.7039 1.99584 55.6998 4.44924 55.6998H42.2411C42.6917 55.6998 43.057 55.3345 43.057 54.8839C43.057 54.4333 42.6917 54.068 42.2411 54.068ZM40.2726 10.0636H35.812C34.2585 10.0636 32.9947 8.7997 32.9947 7.24631V2.78575L40.2726 10.0636Z"/>
    <path d="M18.3298 7H6.72565V9.3208H18.3298V7Z"/>
    <path d="M9.04644 11.6417H6.72565V13.9625H9.04644V11.6417Z"/>
    <path d="M13.6882 11.6417H11.3674V13.9625H13.6882V11.6417Z"/>
    <path d="M36.8965 39.4917H34.5757V41.8125H36.8965V39.4917Z"/>
    <path d="M32.2549 39.4917H29.9341V41.8125H32.2549V39.4917Z"/>
    <path d="M25.2923 39.4917H6.72565V41.8125H25.2923V39.4917Z"/>
    <path d="M36.8964 45.2937H6.72565V47.6145H36.8964V45.2937Z"/>
    <path d="M34.5757 17.4437H9.04657C7.76481 17.4437 6.72577 18.4828 6.72577 19.7645V33.6895C6.72577 34.9713 7.76481 36.0103 9.04657 36.0103H34.5758C35.8575 36.0103 36.8966 34.9713 36.8966 33.6895V19.7645C36.8966 18.4828 35.8574 17.4437 34.5757 17.4437ZM34.5757 33.6895H9.04657V19.7645H34.5758V33.6895H34.5757Z"/>
</svg>
