<svg width="50" height="16" viewBox="0 0 50 16" fill="none" xmlns="http://www.w3.org/2000/svg">
<path d="M6.2875 4.01465C2.8125 4.01465 0 6.68725 0 9.98941C0 13.2916 2.8125 15.9642 6.2875 15.9642C9.7625 15.9642 12.575 13.2916 12.575 9.98941C12.575 6.68725 9.7625 4.01465 6.2875 4.01465ZM6.2875 12.9827C4.55 12.9827 3.1375 11.6405 3.1375 9.98941C3.1375 8.33833 4.55 6.99609 6.2875 6.99609C8.025 6.99609 9.4375 8.33833 9.4375 9.98941C9.4375 11.6405 8.025 12.9827 6.2875 12.9827Z" fill="white"/>
<path d="M17.3375 11.997C17.3375 11.5219 17.9375 11.2962 18.2875 11.6288C19.8625 13.1492 22.4625 15.7624 22.475 15.7743C22.5125 15.8099 22.55 15.8693 22.7 15.9169C22.7625 15.9406 22.8625 15.9406 22.975 15.9406H25.8125C26.325 15.9406 26.475 15.3823 26.2375 15.0973L21.5375 10.5241L21.2875 10.2866C20.75 9.68077 20.8125 9.44321 21.425 8.82554L25.15 4.87008C25.3875 4.585 25.2375 4.0386 24.7125 4.0386H22.1375C22.0375 4.0386 21.9625 4.0386 21.8875 4.06236C21.7375 4.10987 21.675 4.15739 21.6375 4.2049C21.625 4.21678 19.5625 6.33111 18.2875 7.62583C17.9375 7.98218 17.3125 7.74462 17.3125 7.25761V0.47513C17.3125 0.130661 17.0125 0 16.775 0H14.675C14.3125 0 14.1375 0.225687 14.1375 0.427617V15.4655C14.1375 15.8099 14.4375 15.905 14.6875 15.905H16.7875C17.1125 15.905 17.325 15.6793 17.325 15.4536V15.2992V11.997H17.3375Z" fill="white"/>
<path d="M34.4874 15.3942L34.2624 13.3987C34.2374 13.1255 33.9624 12.9354 33.6749 12.9829C33.5124 13.0067 33.3499 13.0186 33.1874 13.0186C31.5124 13.0186 30.1499 11.7713 30.0499 10.1915C30.0499 10.144 30.0499 10.0846 30.0499 10.0252V7.57832C30.0499 7.25761 30.2999 6.99629 30.6374 6.99629H33.4499C33.6499 6.99629 33.9499 6.82999 33.9499 6.48552V4.59688C33.9499 4.22866 33.6999 4.0386 33.4749 4.0386H30.6374C30.3124 4.0386 30.0499 3.81292 30.0374 3.50408V0.47513C30.0374 0.285078 29.8874 0 29.4999 0H27.4124C27.1499 0 26.8999 0.154417 26.8999 0.463252C26.8999 0.463252 26.8999 10.144 26.8999 10.1915C26.9874 13.4224 29.7749 16 33.1874 16C33.4749 16 33.7499 15.9762 34.0249 15.9406C34.3249 15.905 34.5249 15.6674 34.4874 15.3942Z" fill="white"/>
<path d="M49.6375 12.8879C47.8625 12.8879 47.5875 12.2821 47.5875 10.0133C47.5875 10.0014 47.5875 10.0014 47.5875 9.98957V4.53745C47.5875 4.3474 47.4375 4.02669 47.0375 4.02669H44.9375C44.675 4.02669 44.3875 4.22862 44.3875 4.53745V4.78689C43.475 4.28801 42.4125 4.00293 41.2875 4.00293C37.8125 4.00293 35 6.67554 35 9.97769C35 13.2798 37.8125 15.9524 41.2875 15.9524C42.85 15.9524 44.275 15.406 45.375 14.5152C45.9625 15.3704 46.9125 15.9406 48.4 15.9524C48.65 15.9524 50 16 50 15.3942V13.268C50 13.0898 49.85 12.8879 49.6375 12.8879ZM41.3 12.9829C39.5625 12.9829 38.15 11.6406 38.15 9.98957C38.15 8.33849 39.5625 6.99625 41.3 6.99625C43.0375 6.99625 44.45 8.33849 44.45 9.98957C44.4375 11.6406 43.025 12.9829 41.3 12.9829Z" fill="white"/>
</svg>
