<svg width="24" height="24" viewBox="0 0 24 24" fill="none" xmlns="http://www.w3.org/2000/svg">
<path fill-rule="evenodd" clip-rule="evenodd" d="M10.631 17.437L19.12 8.94804C19.511 8.55704 20.144 8.55704 20.534 8.94804L21.612 10.026C22.003 10.417 22.003 11.05 21.612 11.44L13.121 19.931C12.858 20.194 12.527 20.378 12.166 20.463L10.518 20.852C10.034 20.966 9.59904 20.532 9.71204 20.047L10.098 18.396C10.183 18.033 10.368 17.701 10.631 17.437V17.437Z" stroke="#171538" stroke-width="1.5" stroke-linecap="round" stroke-linejoin="round"/>
<path d="M17.53 10.53L20.03 13.03" stroke="#171538" stroke-width="1.5" stroke-linecap="round" stroke-linejoin="round"/>
<path d="M7 21H6.849C4.171 21 2 18.829 2 16.151V16.151C2 14.235 3.128 12.498 4.88 11.72L8.84 9.96C10.154 9.376 11 8.074 11 6.637V6.637C11 4.628 9.372 3 7.363 3H7" stroke="#171538" stroke-width="1.5" stroke-linecap="round" stroke-linejoin="round"/>
</svg>
