<svg width="56" height="56" viewBox="0 0 56 56"  xmlns="http://www.w3.org/2000/svg">
<g clip-path="url(#clip0)">
<path d="M17.4306 9.28827C17.076 9.01032 16.5629 9.07276 16.2852 9.42752L12.5097 14.2477L10.4053 12.6925C10.0429 12.4246 9.53201 12.5012 9.26417 12.8637C8.99633 13.2261 9.07303 13.737 9.43541 14.0048L12.1779 16.0316C12.5332 16.2943 13.0327 16.2264 13.3051 15.8786L17.5699 10.4337C17.8477 10.0789 17.7854 9.56623 17.4306 9.28827Z" />
<path d="M7.6031 4.85925C6.28469 4.85925 5.21204 5.93191 5.21204 7.25032V18.2975C5.21204 19.6159 6.28469 20.6886 7.6031 20.6886H18.6503C19.9687 20.6886 21.0413 19.6159 21.0413 18.2975V7.25032C21.0413 5.9318 19.9687 4.85925 18.6503 4.85925H7.6031ZM19.4096 7.25032V18.2975C19.4096 18.7161 19.069 19.0567 18.6504 19.0567H7.6031C7.18448 19.0567 6.84387 18.7161 6.84387 18.2975V7.25032C6.84387 6.83159 7.18448 6.49108 7.6031 6.49108H18.6503C19.069 6.49108 19.4096 6.83159 19.4096 7.25032Z" />
<path d="M22.7764 54.068H4.98452C3.43102 54.068 2.16711 52.8041 2.16711 51.2506V4.44913C2.16711 2.89574 3.43091 1.63183 4.98452 1.63183H31.574C31.6839 1.63183 31.792 1.64282 31.8982 1.66066V7.2462C31.8982 9.69949 33.8941 11.6953 36.3473 11.6953H41.9329C41.9507 11.8016 41.9617 11.9096 41.9617 12.0195V18.8021C41.9617 19.2527 42.327 19.618 42.7776 19.618C43.2282 19.618 43.5935 19.2527 43.5935 18.8021V12.0195C43.5935 11.0664 43.2223 10.1702 42.5484 9.49627L34.0971 1.04513C33.4232 0.371187 32.5271 0 31.5739 0H4.98452C2.53112 0 0.535278 1.99595 0.535278 4.44913V51.2506C0.535278 53.7039 2.53112 55.6998 4.98452 55.6998H22.7764C23.227 55.6998 23.5923 55.3345 23.5923 54.8839C23.5923 54.4333 23.227 54.068 22.7764 54.068ZM40.8079 10.0636H36.3473C34.7938 10.0636 33.53 8.7997 33.53 7.24631V2.78575L40.8079 10.0636Z" />
<path d="M51.6 45.2574H46.619C45.6828 42.7532 43.795 41.9036 43.795 38.4809V38.4614C43.795 36.5186 44.445 34.6614 45.6253 33.2318C49.4835 28.5592 46.2714 21.5046 40.3074 21.2297C33.9332 20.9343 30.3503 28.2862 34.2184 33.1353C35.4492 34.6785 36.1272 36.5661 36.1272 38.4503V38.4809C36.1272 41.9056 34.2355 42.7632 33.3031 45.2574H28.3219C26.0683 45.2574 24.2349 47.091 24.2349 49.3445V51.1283C24.2349 51.9381 24.8102 52.6159 25.5737 52.7747V53.6468C25.5737 54.7788 26.4947 55.6998 27.6268 55.6998H52.2954C53.4274 55.6998 54.3484 54.7788 54.3484 53.6468V52.7747C55.1118 52.6159 55.6873 51.9381 55.6873 51.1283V49.3445C55.6871 47.0908 53.8537 45.2574 51.6 45.2574ZM37.7589 38.4809V38.4503C37.7589 36.1977 36.9545 33.9487 35.4941 32.1177C32.4855 28.3461 35.2722 22.6309 40.2322 22.8598C44.8664 23.0733 47.3671 28.5591 44.367 32.1929C42.9458 33.9141 42.1631 36.1403 42.1631 38.4614V38.4809C42.1631 42.146 44.0974 43.6767 44.849 45.2574H35.073C35.8287 43.6681 37.7589 42.1529 37.7589 38.4809ZM25.8667 49.3445C25.8667 47.9906 26.9682 46.8893 28.3219 46.8893H51.6C52.9539 46.8893 54.0553 47.9907 54.0553 49.3445V51.1283C54.0553 51.1558 54.0328 51.1783 54.0053 51.1783H25.9166C25.8891 51.1783 25.8667 51.1558 25.8667 51.1283V49.3445ZM52.2953 54.068H27.6267C27.3944 54.068 27.2054 53.879 27.2054 53.6468V52.8101H52.7164V53.6468C52.7165 53.879 52.5275 54.068 52.2953 54.068Z" />
</g>
<defs>
<clipPath id="clip0">
<rect width="55.6998" height="55.6998"  transform="translate(0.260986)"/>
</clipPath>
</defs>
</svg>
