<svg width="16" height="16" viewBox="0 0 16 16" fill="none" xmlns="http://www.w3.org/2000/svg">
<path d="M5.33329 14H2.66663C2.48981 14 2.32025 13.9298 2.19522 13.8047C2.0702 13.6797 1.99996 13.5101 1.99996 13.3333V10.6667C1.99996 10.4899 1.92972 10.3203 1.8047 10.1953C1.67967 10.0702 1.5101 10 1.33329 10C1.15648 10 0.986912 10.0702 0.861888 10.1953C0.736864 10.3203 0.666626 10.4899 0.666626 10.6667V13.3333C0.666626 13.8638 0.87734 14.3725 1.25241 14.7475C1.62749 15.1226 2.13619 15.3333 2.66663 15.3333H5.33329C5.5101 15.3333 5.67967 15.2631 5.8047 15.1381C5.92972 15.013 5.99996 14.8435 5.99996 14.6667C5.99996 14.4899 5.92972 14.3203 5.8047 14.1953C5.67967 14.0702 5.5101 14 5.33329 14ZM14.6666 10C14.4898 10 14.3202 10.0702 14.1952 10.1953C14.0702 10.3203 14 10.4899 14 10.6667V13.3333C14 13.5101 13.9297 13.6797 13.8047 13.8047C13.6797 13.9298 13.5101 14 13.3333 14H10.6666C10.4898 14 10.3202 14.0702 10.1952 14.1953C10.0702 14.3203 9.99996 14.4899 9.99996 14.6667C9.99996 14.8435 10.0702 15.013 10.1952 15.1381C10.3202 15.2631 10.4898 15.3333 10.6666 15.3333H13.3333C13.8637 15.3333 14.3724 15.1226 14.7475 14.7475C15.1226 14.3725 15.3333 13.8638 15.3333 13.3333V10.6667C15.3333 10.4899 15.2631 10.3203 15.138 10.1953C15.013 10.0702 14.8434 10 14.6666 10ZM13.3333 0.666667H10.6666C10.4898 0.666667 10.3202 0.736905 10.1952 0.861929C10.0702 0.986953 9.99996 1.15652 9.99996 1.33333C9.99996 1.51014 10.0702 1.67971 10.1952 1.80474C10.3202 1.92976 10.4898 2 10.6666 2H13.3333C13.5101 2 13.6797 2.07024 13.8047 2.19526C13.9297 2.32029 14 2.48986 14 2.66667V5.33333C14 5.51014 14.0702 5.67971 14.1952 5.80474C14.3202 5.92976 14.4898 6 14.6666 6C14.8434 6 15.013 5.92976 15.138 5.80474C15.2631 5.67971 15.3333 5.51014 15.3333 5.33333V2.66667C15.3333 2.13623 15.1226 1.62753 14.7475 1.25245C14.3724 0.87738 13.8637 0.666667 13.3333 0.666667ZM1.33329 6C1.5101 6 1.67967 5.92976 1.8047 5.80474C1.92972 5.67971 1.99996 5.51014 1.99996 5.33333V2.66667C1.99996 2.48986 2.0702 2.32029 2.19522 2.19526C2.32025 2.07024 2.48981 2 2.66663 2H5.33329C5.5101 2 5.67967 1.92976 5.8047 1.80474C5.92972 1.67971 5.99996 1.51014 5.99996 1.33333C5.99996 1.15652 5.92972 0.986953 5.8047 0.861929C5.67967 0.736905 5.5101 0.666667 5.33329 0.666667H2.66663C2.13619 0.666667 1.62749 0.87738 1.25241 1.25245C0.87734 1.62753 0.666626 2.13623 0.666626 2.66667V5.33333C0.666626 5.51014 0.736864 5.67971 0.861888 5.80474C0.986912 5.92976 1.15648 6 1.33329 6ZM6.66663 3.33333H3.99996C3.82315 3.33333 3.65358 3.40357 3.52855 3.5286C3.40353 3.65362 3.33329 3.82319 3.33329 4V6.66667C3.33329 6.84348 3.40353 7.01305 3.52855 7.13807C3.65358 7.2631 3.82315 7.33333 3.99996 7.33333H6.66663C6.84344 7.33333 7.01301 7.2631 7.13803 7.13807C7.26305 7.01305 7.33329 6.84348 7.33329 6.66667V4C7.33329 3.82319 7.26305 3.65362 7.13803 3.5286C7.01301 3.40357 6.84344 3.33333 6.66663 3.33333ZM5.99996 6H4.66663V4.66667H5.99996V6ZM9.33329 7.33333H12C12.1768 7.33333 12.3463 7.2631 12.4714 7.13807C12.5964 7.01305 12.6666 6.84348 12.6666 6.66667V4C12.6666 3.82319 12.5964 3.65362 12.4714 3.5286C12.3463 3.40357 12.1768 3.33333 12 3.33333H9.33329C9.15648 3.33333 8.98691 3.40357 8.86189 3.5286C8.73686 3.65362 8.66663 3.82319 8.66663 4V6.66667C8.66663 6.84348 8.73686 7.01305 8.86189 7.13807C8.98691 7.2631 9.15648 7.33333 9.33329 7.33333ZM9.99996 4.66667H11.3333V6H9.99996V4.66667ZM6.66663 8.66667H3.99996C3.82315 8.66667 3.65358 8.7369 3.52855 8.86193C3.40353 8.98695 3.33329 9.15652 3.33329 9.33333V12C3.33329 12.1768 3.40353 12.3464 3.52855 12.4714C3.65358 12.5964 3.82315 12.6667 3.99996 12.6667H6.66663C6.84344 12.6667 7.01301 12.5964 7.13803 12.4714C7.26305 12.3464 7.33329 12.1768 7.33329 12V9.33333C7.33329 9.15652 7.26305 8.98695 7.13803 8.86193C7.01301 8.7369 6.84344 8.66667 6.66663 8.66667ZM5.99996 11.3333H4.66663V10H5.99996V11.3333ZM9.33329 10.6667C9.5101 10.6667 9.67967 10.5964 9.8047 10.4714C9.92972 10.3464 9.99996 10.1768 9.99996 10C10.1768 10 10.3463 9.92976 10.4714 9.80474C10.5964 9.67971 10.6666 9.51014 10.6666 9.33333C10.6666 9.15652 10.5964 8.98695 10.4714 8.86193C10.3463 8.7369 10.1768 8.66667 9.99996 8.66667H9.33329C9.15648 8.66667 8.98691 8.7369 8.86189 8.86193C8.73686 8.98695 8.66663 9.15652 8.66663 9.33333V10C8.66663 10.1768 8.73686 10.3464 8.86189 10.4714C8.98691 10.5964 9.15648 10.6667 9.33329 10.6667ZM12 8.66667C11.8231 8.66667 11.6536 8.7369 11.5286 8.86193C11.4035 8.98695 11.3333 9.15652 11.3333 9.33333V11.3333C11.1565 11.3333 10.9869 11.4036 10.8619 11.5286C10.7369 11.6536 10.6666 11.8232 10.6666 12C10.6666 12.1768 10.7369 12.3464 10.8619 12.4714C10.9869 12.5964 11.1565 12.6667 11.3333 12.6667H12C12.1768 12.6667 12.3463 12.5964 12.4714 12.4714C12.5964 12.3464 12.6666 12.1768 12.6666 12V9.33333C12.6666 9.15652 12.5964 8.98695 12.4714 8.86193C12.3463 8.7369 12.1768 8.66667 12 8.66667ZM9.33329 11.3333C9.20144 11.3333 9.07254 11.3724 8.96291 11.4457C8.85328 11.5189 8.76783 11.6231 8.71737 11.7449C8.66691 11.8667 8.65371 12.0007 8.67943 12.1301C8.70516 12.2594 8.76865 12.3782 8.86189 12.4714C8.95512 12.5646 9.07391 12.6281 9.20323 12.6539C9.33255 12.6796 9.4666 12.6664 9.58841 12.6159C9.71023 12.5655 9.81435 12.48 9.8876 12.3704C9.96086 12.2607 9.99996 12.1319 9.99996 12C9.99996 11.8232 9.92972 11.6536 9.8047 11.5286C9.67967 11.4036 9.5101 11.3333 9.33329 11.3333Z" fill="white"/>
</svg>
