<svg width="22" height="22" viewBox="0 0 22 22" fill="none" xmlns="http://www.w3.org/2000/svg">
<path d="M7 19.9997H3C2.73478 19.9997 2.48043 19.8943 2.29289 19.7068C2.10536 19.5192 2 19.2649 2 18.9997V14.9997C2 14.7345 1.89464 14.4801 1.70711 14.2926C1.51957 14.105 1.26522 13.9997 1 13.9997C0.734784 13.9997 0.48043 14.105 0.292893 14.2926C0.105357 14.4801 0 14.7345 0 14.9997V18.9997C0 19.7953 0.31607 20.5584 0.87868 21.121C1.44129 21.6836 2.20435 21.9997 3 21.9997H7C7.26522 21.9997 7.51957 21.8943 7.70711 21.7068C7.89464 21.5192 8 21.2649 8 20.9997C8 20.7345 7.89464 20.4801 7.70711 20.2926C7.51957 20.105 7.26522 19.9997 7 19.9997ZM21 13.9997C20.7348 13.9997 20.4804 14.105 20.2929 14.2926C20.1054 14.4801 20 14.7345 20 14.9997V18.9997C20 19.2649 19.8946 19.5192 19.7071 19.7068C19.5196 19.8943 19.2652 19.9997 19 19.9997H15C14.7348 19.9997 14.4804 20.105 14.2929 20.2926C14.1054 20.4801 14 20.7345 14 20.9997C14 21.2649 14.1054 21.5192 14.2929 21.7068C14.4804 21.8943 14.7348 21.9997 15 21.9997H19C19.7956 21.9997 20.5587 21.6836 21.1213 21.121C21.6839 20.5584 22 19.7953 22 18.9997V14.9997C22 14.7345 21.8946 14.4801 21.7071 14.2926C21.5196 14.105 21.2652 13.9997 21 13.9997ZM19 -0.00032568H15C14.7348 -0.00032568 14.4804 0.105031 14.2929 0.292567C14.1054 0.480104 14 0.734458 14 0.999674C14 1.26489 14.1054 1.51924 14.2929 1.70678C14.4804 1.89432 14.7348 1.99967 15 1.99967H19C19.2652 1.99967 19.5196 2.10503 19.7071 2.29257C19.8946 2.4801 20 2.73446 20 2.99967V6.99967C20 7.26489 20.1054 7.51924 20.2929 7.70678C20.4804 7.89432 20.7348 7.99967 21 7.99967C21.2652 7.99967 21.5196 7.89432 21.7071 7.70678C21.8946 7.51924 22 7.26489 22 6.99967V2.99967C22 2.20402 21.6839 1.44096 21.1213 0.878354C20.5587 0.315745 19.7956 -0.00032568 19 -0.00032568ZM1 7.99967C1.26522 7.99967 1.51957 7.89432 1.70711 7.70678C1.89464 7.51924 2 7.26489 2 6.99967V2.99967C2 2.73446 2.10536 2.4801 2.29289 2.29257C2.48043 2.10503 2.73478 1.99967 3 1.99967H7C7.26522 1.99967 7.51957 1.89432 7.70711 1.70678C7.89464 1.51924 8 1.26489 8 0.999674C8 0.734458 7.89464 0.480104 7.70711 0.292567C7.51957 0.105031 7.26522 -0.00032568 7 -0.00032568H3C2.20435 -0.00032568 1.44129 0.315745 0.87868 0.878354C0.31607 1.44096 0 2.20402 0 2.99967V6.99967C0 7.26489 0.105357 7.51924 0.292893 7.70678C0.48043 7.89432 0.734784 7.99967 1 7.99967ZM9 3.99967H5C4.73478 3.99967 4.48043 4.10503 4.29289 4.29257C4.10536 4.4801 4 4.73446 4 4.99967V8.99967C4 9.26489 4.10536 9.51924 4.29289 9.70678C4.48043 9.89432 4.73478 9.99967 5 9.99967H9C9.26522 9.99967 9.51957 9.89432 9.70711 9.70678C9.89464 9.51924 10 9.26489 10 8.99967V4.99967C10 4.73446 9.89464 4.4801 9.70711 4.29257C9.51957 4.10503 9.26522 3.99967 9 3.99967ZM8 7.99967H6V5.99967H8V7.99967ZM13 9.99967H17C17.2652 9.99967 17.5196 9.89432 17.7071 9.70678C17.8946 9.51924 18 9.26489 18 8.99967V4.99967C18 4.73446 17.8946 4.4801 17.7071 4.29257C17.5196 4.10503 17.2652 3.99967 17 3.99967H13C12.7348 3.99967 12.4804 4.10503 12.2929 4.29257C12.1054 4.4801 12 4.73446 12 4.99967V8.99967C12 9.26489 12.1054 9.51924 12.2929 9.70678C12.4804 9.89432 12.7348 9.99967 13 9.99967ZM14 5.99967H16V7.99967H14V5.99967ZM9 11.9997H5C4.73478 11.9997 4.48043 12.105 4.29289 12.2926C4.10536 12.4801 4 12.7345 4 12.9997V16.9997C4 17.2649 4.10536 17.5192 4.29289 17.7068C4.48043 17.8943 4.73478 17.9997 5 17.9997H9C9.26522 17.9997 9.51957 17.8943 9.70711 17.7068C9.89464 17.5192 10 17.2649 10 16.9997V12.9997C10 12.7345 9.89464 12.4801 9.70711 12.2926C9.51957 12.105 9.26522 11.9997 9 11.9997ZM8 15.9997H6V13.9997H8V15.9997ZM13 14.9997C13.2652 14.9997 13.5196 14.8943 13.7071 14.7068C13.8946 14.5192 14 14.2649 14 13.9997C14.2652 13.9997 14.5196 13.8943 14.7071 13.7068C14.8946 13.5192 15 13.2649 15 12.9997C15 12.7345 14.8946 12.4801 14.7071 12.2926C14.5196 12.105 14.2652 11.9997 14 11.9997H13C12.7348 11.9997 12.4804 12.105 12.2929 12.2926C12.1054 12.4801 12 12.7345 12 12.9997V13.9997C12 14.2649 12.1054 14.5192 12.2929 14.7068C12.4804 14.8943 12.7348 14.9997 13 14.9997ZM17 11.9997C16.7348 11.9997 16.4804 12.105 16.2929 12.2926C16.1054 12.4801 16 12.7345 16 12.9997V15.9997C15.7348 15.9997 15.4804 16.105 15.2929 16.2926C15.1054 16.4801 15 16.7345 15 16.9997C15 17.2649 15.1054 17.5192 15.2929 17.7068C15.4804 17.8943 15.7348 17.9997 16 17.9997H17C17.2652 17.9997 17.5196 17.8943 17.7071 17.7068C17.8946 17.5192 18 17.2649 18 16.9997V12.9997C18 12.7345 17.8946 12.4801 17.7071 12.2926C17.5196 12.105 17.2652 11.9997 17 11.9997ZM13 15.9997C12.8022 15.9997 12.6089 16.0583 12.4444 16.1682C12.28 16.2781 12.1518 16.4343 12.0761 16.617C12.0004 16.7997 11.9806 17.0008 12.0192 17.1948C12.0578 17.3887 12.153 17.5669 12.2929 17.7068C12.4327 17.8466 12.6109 17.9419 12.8049 17.9805C12.9989 18.019 13.2 17.9992 13.3827 17.9236C13.5654 17.8479 13.7216 17.7197 13.8315 17.5552C13.9414 17.3908 14 17.1975 14 16.9997C14 16.7345 13.8946 16.4801 13.7071 16.2926C13.5196 16.105 13.2652 15.9997 13 15.9997Z" fill="#2A6FDB"/>
</svg>
