<svg width="18" height="18" viewBox="0 0 18 18" fill="none" xmlns="http://www.w3.org/2000/svg">
<g clip-path="url(#clip0)">
<path d="M5.54851 3.00167C5.4339 2.91185 5.2681 2.93203 5.17835 3.04667L3.95825 4.60438L3.27818 4.10178C3.16108 4.01523 2.99598 4.03998 2.90943 4.15712C2.82288 4.27422 2.84766 4.43932 2.96477 4.52587L3.85102 5.18087C3.96584 5.26574 4.12728 5.2438 4.21531 5.1314L5.59351 3.37183C5.6833 3.25719 5.66315 3.0915 5.54851 3.00167Z" fill="#2A6FDB"/>
<path d="M2.3728 1.57031C1.94674 1.57031 1.6001 1.91695 1.6001 2.34301V5.91302C1.6001 6.33908 1.94674 6.68572 2.3728 6.68572H5.94281C6.36887 6.68572 6.71551 6.33908 6.71551 5.91302V2.34301C6.71551 1.91692 6.36887 1.57031 5.94281 1.57031H2.3728ZM6.1882 2.34301V5.91302C6.1882 6.04831 6.07812 6.15838 5.94284 6.15838H2.3728C2.23752 6.15838 2.12744 6.04831 2.12744 5.91302V2.34301C2.12744 2.2077 2.23752 2.09766 2.3728 2.09766H5.94281C6.07812 2.09766 6.1882 2.2077 6.1882 2.34301Z" fill="#2A6FDB"/>
<path d="M7.27613 17.4727H1.5265C1.02447 17.4727 0.616028 17.0642 0.616028 16.5622V1.43779C0.616028 0.935789 1.02444 0.527344 1.5265 0.527344H10.1192C10.1547 0.527344 10.1896 0.530895 10.224 0.53666V2.34169C10.224 3.1345 10.869 3.77947 11.6617 3.77947H13.4668C13.4725 3.81382 13.4761 3.84873 13.4761 3.88424V6.07609C13.4761 6.22171 13.5941 6.33976 13.7398 6.33976C13.8854 6.33976 14.0034 6.22171 14.0034 6.07609V3.88424C14.0034 3.57623 13.8835 3.28662 13.6657 3.06882L10.9346 0.337746C10.7168 0.119953 10.4272 0 10.1192 0H1.5265C0.733661 0 0.0886841 0.645012 0.0886841 1.43779V16.5622C0.0886841 17.355 0.733661 18 1.5265 18H7.27613C7.42175 18 7.53981 17.8819 7.53981 17.7363C7.53981 17.5907 7.42175 17.4727 7.27613 17.4727ZM13.1032 3.25216H11.6617C11.1597 3.25216 10.7513 2.84372 10.7513 2.34172V0.900246L13.1032 3.25216Z" fill="#2A6FDB"/>
<path d="M16.5908 14.6255H14.9811C14.6786 13.8163 14.0685 13.5417 14.0685 12.4356V12.4293C14.0685 11.8015 14.2786 11.2013 14.66 10.7393C15.9068 9.22932 14.8688 6.94954 12.9415 6.8607C10.8815 6.76525 9.72371 9.14107 10.9737 10.7081C11.3715 11.2068 11.5906 11.8168 11.5906 12.4257V12.4356C11.5906 13.5424 10.9792 13.8195 10.6779 14.6255H9.06822C8.33992 14.6255 7.74744 15.218 7.74744 15.9463V16.5228C7.74744 16.7845 7.93338 17.0035 8.1801 17.0548V17.3366C8.1801 17.7025 8.47774 18.0001 8.84357 18.0001H16.8155C17.1813 18.0001 17.479 17.7025 17.479 17.3366V17.0548C17.7257 17.0035 17.9116 16.7845 17.9116 16.5228V15.9463C17.9116 15.218 17.3191 14.6255 16.5908 14.6255ZM12.1179 12.4356V12.4257C12.1179 11.6978 11.8579 10.971 11.386 10.3793C10.4137 9.16045 11.3143 7.31351 12.9172 7.38748C14.4147 7.45649 15.2229 9.22928 14.2533 10.4036C13.7941 10.9598 13.5412 11.6792 13.5412 12.4293V12.4356C13.5412 13.62 14.1662 14.1147 14.4091 14.6255H11.2499C11.4941 14.1119 12.1179 13.6223 12.1179 12.4356ZM8.27478 15.9463C8.27478 15.5088 8.63074 15.1529 9.06822 15.1529H16.5908C17.0283 15.1529 17.3842 15.5088 17.3842 15.9463V16.5228C17.3842 16.5317 17.377 16.5389 17.3681 16.5389H8.29092C8.28202 16.5389 8.27478 16.5317 8.27478 16.5228V15.9463ZM16.8155 17.4728H8.84354C8.76848 17.4728 8.70741 17.4117 8.70741 17.3366V17.0662H16.9516V17.3366C16.9516 17.4117 16.8905 17.4728 16.8155 17.4728Z" fill="#2A6FDB"/>
</g>
<defs>
<clipPath id="clip0">
<rect width="18" height="18" fill="white"/>
</clipPath>
</defs>
</svg>
