<svg width="16" height="16" viewBox="0 0 16 16" fill="none" xmlns="http://www.w3.org/2000/svg">
<path d="M15 2.00024H13V1.00024C13 0.400244 12.6 0.000244141 12 0.000244141H11C10.4 0.000244141 10 0.400244 10 1.00024V2.00024H6V1.00024C6 0.400244 5.6 0.000244141 5 0.000244141H4C3.4 0.000244141 3 0.400244 3 1.00024V2.00024H1C0.4 2.00024 0 2.40024 0 3.00024V15.0002C0 15.6002 0.4 16.0002 1 16.0002H15C15.6 16.0002 16 15.6002 16 15.0002V3.00024C16 2.40024 15.6 2.00024 15 2.00024ZM14 14.0002H2V7.00024H14V14.0002Z" fill="#777595"/>
</svg>
