<svg width="57" height="56" viewBox="0 0 57 56"  xmlns="http://www.w3.org/2000/svg">
<g clip-path="url(#clip0)">
<path d="M6.98755 6.49497V54.7439C6.98755 55.2564 7.40299 55.6718 7.91551 55.6718H43.1744C43.6865 55.6718 44.102 55.2564 44.102 54.7439V15.7739C44.102 15.7532 44.092 15.7356 44.0901 15.7154C44.0855 15.634 44.0695 15.5537 44.0427 15.4769C44.0324 15.4471 44.0251 15.4184 44.0122 15.3894C43.9671 15.2885 43.9044 15.1964 43.8264 15.1176L34.5479 5.83912C34.4692 5.76077 34.3767 5.69809 34.275 5.65338C34.2471 5.64153 34.2188 5.63159 34.1898 5.6228C34.1122 5.59605 34.0316 5.58 33.9494 5.57464C33.9337 5.57732 33.9154 5.56738 33.8959 5.56738H7.91551C7.40299 5.56738 6.98755 5.98245 6.98755 6.49497ZM40.9343 14.8459H34.8235V8.735L40.9343 14.8459ZM8.8431 7.42293H32.9679V15.7739C32.9679 16.286 33.3834 16.7014 33.8955 16.7014H42.2464V53.8163H8.8431V7.42293Z" />
<path d="M45.958 48.2489V50.1044H48.7415C49.254 50.1044 49.6694 49.6894 49.6694 49.1768V0.927966C49.6694 0.415444 49.254 0 48.7415 0H13.4826C12.9701 0 12.5546 0.415444 12.5546 0.927966V3.71148H14.4106V1.85555H47.8135V48.2489H45.958Z" />
<path d="M14.4105 18.5574H36.679V20.4129H14.4105V18.5574Z" />
<path d="M14.4105 12.9901H21.8335V14.846H14.4105V12.9901Z" />
<path d="M14.4105 24.1244H29.2564V25.9803H14.4105V24.1244Z"/>
<path d="M31.112 24.1244H36.679V25.9803H31.112V24.1244Z" />
<path d="M14.4105 29.6914H36.679V31.5474H14.4105V29.6914Z" />
<path d="M14.4105 40.8259H36.679V42.6819H14.4105V40.8259Z" />
<path d="M22.7611 35.2588H36.6791V37.1143H22.7611V35.2588Z"/>
<path d="M14.4105 35.2588H20.9055V37.1143H14.4105V35.2588Z"/>
<path d="M14.4105 46.3933H18.122V48.2489H14.4105V46.3933Z" />
<path d="M19.9775 46.3933H36.679V48.2489H19.9775V46.3933Z" />
</g>
<defs>
<clipPath id="clip0">
<rect width="55.6998" height="55.6998"  transform="translate(0.50531)"/>
</clipPath>
</defs>
</svg>
