<svg width="32" height="32" viewBox="0 0 32 32" fill="none" xmlns="http://www.w3.org/2000/svg">
<path d="M32 16C32 24.8366 24.8366 32 16 32C7.16344 32 0 24.8366 0 16C0 7.16344 7.16344 0 16 0C24.8366 0 32 7.16344 32 16ZM6.13914 16C6.13914 21.446 10.554 25.8609 16 25.8609C21.446 25.8609 25.8609 21.446 25.8609 16C25.8609 10.554 21.446 6.13914 16 6.13914C10.554 6.13914 6.13914 10.554 6.13914 16Z" fill="#E8EAF2"/>
<path d="M32 16C32 19.1645 31.0616 22.2579 29.3035 24.8891C27.5454 27.5203 25.0466 29.5711 22.1229 30.7821C19.1993 31.9931 15.9823 32.3099 12.8786 31.6926C9.77486 31.0752 6.92393 29.5513 4.68629 27.3137C2.44865 25.0761 0.924799 22.2251 0.307435 19.1214C-0.309928 16.0177 0.00692538 12.8007 1.21793 9.87706C2.42893 6.95345 4.47969 4.45459 7.11088 2.69649C9.74206 0.938384 12.8355 -3.77363e-08 16 0V6.03684C14.0295 6.03684 12.1032 6.62117 10.4648 7.71594C8.82633 8.8107 7.54933 10.3667 6.79524 12.1873C6.04115 14.0078 5.84385 16.0111 6.22828 17.9437C6.61271 19.8764 7.56161 21.6516 8.95498 23.045C10.3484 24.4384 12.1236 25.3873 14.0563 25.7717C15.9889 26.1561 17.9922 25.9588 19.8127 25.2048C21.6333 24.4507 23.1893 23.1737 24.2841 21.5352C25.3788 19.8968 25.9632 17.9705 25.9632 16H32Z" fill="#2A6FDB"/>
</svg>
