<svg width="20" height="20" viewBox="0 0 20 20" fill="none" xmlns="http://www.w3.org/2000/svg">
<g opacity="0.8">
<path d="M9.97971 1C5.27424 1 1.41505 4.60332 1.00002 9.20053H8.33954V6.74036C8.33954 6.40911 8.5397 6.10985 8.84557 5.98266C9.15219 5.85563 9.50491 5.92605 9.73931 6.1606L13.0196 9.44093C13.3402 9.76152 13.3402 10.2797 13.0196 10.6004L9.73931 13.8806C9.50491 14.1152 9.15219 14.1857 8.84557 14.0586C8.5397 13.9315 8.33954 13.6321 8.33954 13.3009V10.8407H1.00002C1.41505 15.4379 5.27424 19.0412 9.97971 19.0412C14.9615 19.0412 19.0002 15.0024 19.0002 10.0207C19.0002 5.03877 14.9615 1 9.97971 1V1Z" fill="white"/>
</g>
</svg>
