<svg width="43" height="48" viewBox="0 0 43 48" fill="none" xmlns="http://www.w3.org/2000/svg">
<mask id="path-1-inside-1" fill="white">
<path fill-rule="evenodd" clip-rule="evenodd" d="M14.0511 2.5999L12.9818 1.86953C15.1807 0.725138 19.426 0.0405628 21.6869 0.00221526C25.6182 -0.0645714 27.8731 1.39065 28.9209 2.76144C33.6443 3.46985 33.2101 12.1929 33.2052 12.2906L33.2052 12.2914C32.3349 13.2479 31.9634 14.4243 31.8141 15.4021C32.3469 15.7294 32.6502 16.3785 32.4843 17.0422L31.6678 20.3076C31.5711 20.6944 31.2235 20.9659 30.8247 20.9659C30.7088 20.9659 30.5976 20.943 30.4958 20.9014L30.4544 21.8128C30.3956 23.1074 29.7608 24.3081 28.724 25.0857L28.1928 25.4841V28.1218L28.2936 28.031C28.6214 27.7362 29.1343 27.8006 29.3787 28.1676L30.3609 29.6406L30.2693 29.842C34.5396 31.1122 39.4087 33.4743 42.633 37.8389C37.6174 44.022 29.9209 47.9999 21.3165 47.9999C12.7121 47.9999 5.01565 44.022 0 37.8389C3.4402 33.2382 8.62861 30.8624 13.0134 29.6452L13.0116 29.6406L13.9937 28.1676C14.2383 27.8006 14.7512 27.7362 15.0788 28.031L15.1807 28.1228V25.4838L14.6499 25.0857C13.6131 24.3081 12.9784 23.1076 12.9195 21.8128L12.878 20.9011C12.776 20.9429 12.6646 20.9659 12.5483 20.9659C12.1494 20.9659 11.8018 20.6944 11.705 20.3076L10.8886 17.0422C10.739 16.4438 10.971 15.8572 11.4086 15.5077C11.2363 14.3934 10.8755 13.0464 10.1203 12.2912C10.1203 12.2912 9.21682 6.16924 14.0511 2.5999Z"/>
</mask>
<path fill-rule="evenodd" clip-rule="evenodd" d="M14.0511 2.5999L12.9818 1.86953C15.1807 0.725138 19.426 0.0405628 21.6869 0.00221526C25.6182 -0.0645714 27.8731 1.39065 28.9209 2.76144C33.6443 3.46985 33.2101 12.1929 33.2052 12.2906L33.2052 12.2914C32.3349 13.2479 31.9634 14.4243 31.8141 15.4021C32.3469 15.7294 32.6502 16.3785 32.4843 17.0422L31.6678 20.3076C31.5711 20.6944 31.2235 20.9659 30.8247 20.9659C30.7088 20.9659 30.5976 20.943 30.4958 20.9014L30.4544 21.8128C30.3956 23.1074 29.7608 24.3081 28.724 25.0857L28.1928 25.4841V28.1218L28.2936 28.031C28.6214 27.7362 29.1343 27.8006 29.3787 28.1676L30.3609 29.6406L30.2693 29.842C34.5396 31.1122 39.4087 33.4743 42.633 37.8389C37.6174 44.022 29.9209 47.9999 21.3165 47.9999C12.7121 47.9999 5.01565 44.022 0 37.8389C3.4402 33.2382 8.62861 30.8624 13.0134 29.6452L13.0116 29.6406L13.9937 28.1676C14.2383 27.8006 14.7512 27.7362 15.0788 28.031L15.1807 28.1228V25.4838L14.6499 25.0857C13.6131 24.3081 12.9784 23.1076 12.9195 21.8128L12.878 20.9011C12.776 20.9429 12.6646 20.9659 12.5483 20.9659C12.1494 20.9659 11.8018 20.6944 11.705 20.3076L10.8886 17.0422C10.739 16.4438 10.971 15.8572 11.4086 15.5077C11.2363 14.3934 10.8755 13.0464 10.1203 12.2912C10.1203 12.2912 9.21682 6.16924 14.0511 2.5999Z" fill="#F3F5F7"/>
<path d="M12.9818 1.86953L12.0585 0.0954027L9.09584 1.63725L11.8537 3.52103L12.9818 1.86953ZM14.0511 2.5999L15.239 4.20886L17.5041 2.53647L15.1792 0.948397L14.0511 2.5999ZM21.6869 0.00221526L21.7208 2.00193L21.7208 2.00193L21.6869 0.00221526ZM28.9209 2.76144L27.3318 3.97594L27.8235 4.61923L28.6242 4.73932L28.9209 2.76144ZM33.2052 12.2906L35.2027 12.392L35.2028 12.39L33.2052 12.2906ZM33.2052 12.2914L34.6844 13.6375L35.1663 13.1079L35.2026 12.3928L33.2052 12.2914ZM31.8141 15.4021L29.837 15.1002L29.6367 16.4119L30.7673 17.1063L31.8141 15.4021ZM32.4843 17.0422L34.4246 17.5273L34.4246 17.5272L32.4843 17.0422ZM31.6678 20.3076L33.6081 20.7928L33.6081 20.7927L31.6678 20.3076ZM30.4958 20.9014L31.2531 19.0503L28.6268 17.9758L28.4979 20.8106L30.4958 20.9014ZM30.4544 21.8128L28.4565 21.722L28.4565 21.7221L30.4544 21.8128ZM28.724 25.0857L29.924 26.6857L29.924 26.6857L28.724 25.0857ZM28.1928 25.4841L26.9928 23.8841L26.1928 24.4841V25.4841H28.1928ZM28.1928 28.1218H26.1928V32.6125L29.5307 29.6084L28.1928 28.1218ZM28.2936 28.031L26.9559 26.5443L26.9557 26.5445L28.2936 28.031ZM29.3787 28.1676L27.7143 29.2764L27.7147 29.2771L29.3787 28.1676ZM30.3609 29.6406L32.1816 30.4682L32.6417 29.4561L32.0249 28.5311L30.3609 29.6406ZM30.2693 29.842L28.4486 29.0143L27.4985 31.1044L29.6991 31.759L30.2693 29.842ZM42.633 37.8389L44.1862 39.0989L45.1619 37.8962L44.2417 36.6505L42.633 37.8389ZM0 37.8389L-1.60173 36.6412L-2.53471 37.8889L-1.55322 39.0989L0 37.8389ZM13.0134 29.6452L13.5484 31.5724L15.6855 30.9791L14.8751 28.9145L13.0134 29.6452ZM13.0116 29.6406L11.3475 28.5311L10.7685 29.3996L11.1498 30.3713L13.0116 29.6406ZM13.9937 28.1676L15.6577 29.2771L15.6578 29.277L13.9937 28.1676ZM15.0788 28.031L13.7406 29.5174L13.7409 29.5176L15.0788 28.031ZM15.1807 28.1228L13.8428 29.6094L17.1807 32.6135V28.1228H15.1807ZM15.1807 25.4838H17.1807V24.4838L16.3807 23.8838L15.1807 25.4838ZM14.6499 25.0857L13.4499 26.6857L14.6499 25.0857ZM12.9195 21.8128L10.9215 21.9037L10.9215 21.9038L12.9195 21.8128ZM12.878 20.9011L14.876 20.8102L14.7469 17.9724L12.1188 19.0508L12.878 20.9011ZM11.705 20.3076L9.76477 20.7927L9.7648 20.7928L11.705 20.3076ZM10.8886 17.0422L8.94827 17.5272L8.94829 17.5273L10.8886 17.0422ZM11.4086 15.5077L12.6566 17.0706L13.5622 16.3474L13.3851 15.2021L11.4086 15.5077ZM10.1203 12.2912L8.14172 12.5832L8.23831 13.2376L8.70608 13.7054L10.1203 12.2912ZM11.8537 3.52103L12.923 4.25141L15.1792 0.948397L14.1099 0.21802L11.8537 3.52103ZM21.6529 -1.9975C20.3781 -1.97587 18.6309 -1.77743 16.9244 -1.44116C15.2463 -1.11049 13.4128 -0.60943 12.0585 0.0954027L13.9051 3.64365C14.7497 3.20409 16.1383 2.79067 17.6978 2.48337C19.2289 2.18167 20.7347 2.01865 21.7208 2.00193L21.6529 -1.9975ZM30.5099 1.54693C29.0192 -0.403367 26.1186 -2.07336 21.6529 -1.9975L21.7208 2.00193C25.1178 1.94422 26.7271 3.18466 27.3318 3.97594L30.5099 1.54693ZM35.2028 12.39C35.2075 12.2956 35.3289 9.88214 34.7931 7.34222C34.526 6.0759 34.067 4.6334 33.2387 3.41261C32.3817 2.14944 31.0774 1.0625 29.2175 0.783558L28.6242 4.73932C29.1261 4.81458 29.5388 5.08368 29.9286 5.65836C30.3473 6.27543 30.6651 7.15262 30.8792 8.16782C31.306 10.1909 31.2079 12.1879 31.2077 12.1912L35.2028 12.39ZM35.2026 12.3928L35.2027 12.392L31.2078 12.1892L31.2078 12.19L35.2026 12.3928ZM33.7912 15.7041C33.9062 14.951 34.1728 14.1998 34.6844 13.6375L31.726 10.9454C30.497 12.2959 30.0207 13.8977 29.837 15.1002L33.7912 15.7041ZM34.4246 17.5272C34.8137 15.9707 34.0957 14.4564 32.8609 13.6979L30.7673 17.1063C30.5982 17.0024 30.4867 16.7863 30.544 16.5571L34.4246 17.5272ZM33.6081 20.7927L34.4246 17.5273L30.544 16.557L29.7276 19.8224L33.6081 20.7927ZM30.8247 22.9659C32.1414 22.9659 33.2887 22.0697 33.6081 20.7928L29.7276 19.8223C29.8534 19.3192 30.3055 18.9659 30.8247 18.9659V22.9659ZM29.7385 22.7525C30.0764 22.8907 30.4445 22.9659 30.8247 22.9659V18.9659C30.9731 18.9659 31.1188 18.9954 31.2531 19.0503L29.7385 22.7525ZM32.4523 21.9037L32.4938 20.9922L28.4979 20.8106L28.4565 21.722L32.4523 21.9037ZM29.924 26.6857C31.4388 25.5495 32.3665 23.7953 32.4524 21.9035L28.4565 21.7221C28.4248 22.4195 28.0827 23.0666 27.524 23.4857L29.924 26.6857ZM29.3928 27.0841L29.924 26.6857L27.524 23.4857L26.9928 23.8841L29.3928 27.0841ZM30.1928 28.1218V25.4841H26.1928V28.1218H30.1928ZM29.5307 29.6084L29.6316 29.5176L26.9557 26.5445L26.8549 26.6352L29.5307 29.6084ZM29.6314 29.5178C29.0528 30.0384 28.1462 29.9248 27.7143 29.2764L31.0432 27.0587C30.1223 25.6764 28.1899 25.4339 26.9559 26.5443L29.6314 29.5178ZM27.7147 29.2771L28.6968 30.7501L32.0249 28.5311L31.0428 27.0581L27.7147 29.2771ZM28.5401 28.8129L28.4486 29.0143L32.09 30.6696L32.1816 30.4682L28.5401 28.8129ZM29.6991 31.759C33.7635 32.9679 38.1634 35.1545 41.0244 39.0273L44.2417 36.6505C40.6541 31.7942 35.3157 29.2564 30.8395 27.925L29.6991 31.759ZM41.0798 36.579C36.4273 42.3143 29.2923 45.9999 21.3165 45.9999V49.9999C30.5496 49.9999 38.8074 45.7297 44.1862 39.0989L41.0798 36.579ZM21.3165 45.9999C13.3407 45.9999 6.20569 42.3143 1.55322 36.579L-1.55322 39.0989C3.82561 45.7297 12.0834 49.9999 21.3165 49.9999V45.9999ZM1.60173 39.0366C4.66607 34.9385 9.36869 32.7326 13.5484 31.5724L12.4784 27.7181C7.88854 28.9922 2.21433 31.5378 -1.60173 36.6412L1.60173 39.0366ZM14.8751 28.9145L14.8733 28.9099L11.1498 30.3713L11.1517 30.3759L14.8751 28.9145ZM14.6756 30.7501L15.6577 29.2771L12.3297 27.0581L11.3475 28.5311L14.6756 30.7501ZM15.6578 29.277C15.2264 29.9241 14.3201 30.0391 13.7406 29.5174L16.417 26.5447C15.1824 25.4333 13.2503 25.6771 12.3296 27.0582L15.6578 29.277ZM13.7409 29.5176L13.8428 29.6094L16.5187 26.6362L16.4167 26.5445L13.7409 29.5176ZM13.1807 25.4838V28.1228H17.1807V25.4838H13.1807ZM13.4499 26.6857L13.9807 27.0838L16.3807 23.8838L15.8499 23.4857L13.4499 26.6857ZM10.9215 21.9038C11.0076 23.7954 11.9349 25.5495 13.4499 26.6857L15.8499 23.4857C15.2913 23.0667 14.9492 22.4198 14.9174 21.7219L10.9215 21.9038ZM10.8801 20.9919L10.9215 21.9037L14.9174 21.722L14.876 20.8102L10.8801 20.9919ZM12.5483 22.9659C12.9296 22.9659 13.2986 22.8903 13.6372 22.7514L12.1188 19.0508C12.2534 18.9955 12.3996 18.9659 12.5483 18.9659V22.9659ZM9.7648 20.7928C10.0842 22.0699 11.2317 22.9659 12.5483 22.9659V18.9659C13.0671 18.9659 13.5194 19.3189 13.6453 19.8223L9.7648 20.7928ZM8.94829 17.5273L9.76477 20.7927L13.6453 19.8224L12.8288 16.557L8.94829 17.5273ZM10.1605 13.9449C9.14837 14.7533 8.59764 16.1247 8.94827 17.5272L12.8288 16.5571C12.8803 16.7629 12.7936 16.9612 12.6566 17.0706L10.1605 13.9449ZM8.70608 13.7054C8.79465 13.794 8.94733 14.0162 9.10209 14.4445C9.24994 14.8536 9.35786 15.3334 9.43207 15.8133L13.3851 15.2021C13.287 14.5677 13.1284 13.8168 12.864 13.0851C12.6065 12.3725 12.2012 11.5436 11.5345 10.877L8.70608 13.7054ZM12.8631 0.990944C9.92028 3.16377 8.74876 6.10835 8.30851 8.40798C8.08831 9.5582 8.0442 10.5747 8.05487 11.308C8.06023 11.6763 8.0795 11.9781 8.09853 12.1955C8.10806 12.3044 8.11757 12.3925 8.12533 12.4578C8.12921 12.4904 8.13266 12.5173 8.13546 12.5383C8.13686 12.5488 8.1381 12.5578 8.13915 12.5653C8.13968 12.569 8.14016 12.5724 8.14059 12.5754C8.1408 12.5769 8.14101 12.5783 8.1412 12.5796C8.14129 12.5802 8.14142 12.5811 8.14147 12.5814C8.1416 12.5823 8.14172 12.5832 10.1203 12.2912C12.0989 11.9992 12.099 12 12.0991 12.0008C12.0991 12.001 12.0992 12.0018 12.0993 12.0022C12.0994 12.0031 12.0996 12.004 12.0997 12.0047C12.0999 12.0062 12.1 12.0074 12.1002 12.0081C12.1004 12.0097 12.1004 12.0099 12.1002 12.0087C12.0999 12.0063 12.0989 11.9984 12.0973 11.9853C12.0942 11.9591 12.089 11.9123 12.0833 11.8468C12.0718 11.7155 12.0583 11.5111 12.0544 11.2497C12.0468 10.7236 12.079 9.98653 12.2372 9.16009C12.5537 7.50643 13.3476 5.60538 15.239 4.20886L12.8631 0.990944Z" fill="#8899AA" mask="url(#path-1-inside-1)"/>
</svg>
