<svg width="55" height="55" viewBox="0 0 55 55" fill="none" xmlns="http://www.w3.org/2000/svg">
<path d="M7.91882 8.85733V22.8407C7.91882 23.3993 8.37169 23.8518 8.92999 23.8518H22.9136C23.4719 23.8518 23.9248 23.3993 23.9248 22.8407V20.1892C23.9248 19.6306 23.4719 19.178 22.9136 19.178C22.3553 19.178 21.9028 19.6306 21.9028 20.1892V21.8298H9.94117V9.86819H21.9028V20.1251C21.9028 20.6837 22.3553 21.1366 22.9136 21.1366C23.4719 21.1366 23.9248 20.6837 23.9248 20.1251V8.85733C23.9248 8.29872 23.4719 7.84616 22.9136 7.84616H8.92999C8.37169 7.84616 7.91882 8.29872 7.91882 8.85733Z" fill="#2A6FDB"/>
<path d="M13.8243 12.7405C13.2657 12.7405 12.8135 13.1931 12.8135 13.7514V17.9465C12.8135 18.5048 13.2657 18.9577 13.8243 18.9577H18.0195C18.5778 18.9577 19.0306 18.5048 19.0306 17.9465V13.7514C19.0306 13.1931 18.5778 12.7405 18.0195 12.7405H13.8243ZM17.0086 16.9357H14.8355V14.7626H17.0086V16.9357Z" fill="#2A6FDB"/>
<path d="M22.9136 31.0725H8.92999C8.37169 31.0725 7.91882 31.5251 7.91882 32.0834V46.0674C7.91882 46.6257 8.37169 47.0782 8.92999 47.0782H22.9136C23.4719 47.0782 23.9248 46.6257 23.9248 46.0674V32.0834C23.9248 31.5251 23.4719 31.0725 22.9136 31.0725ZM21.9028 45.0562H9.94117V33.0946H21.9028V45.0562Z" fill="#2A6FDB"/>
<path d="M32.2265 23.8518H46.2104C46.7684 23.8518 47.2213 23.3993 47.2213 22.8407V8.85733C47.2213 8.29872 46.7684 7.84616 46.2104 7.84616H32.2265C31.6682 7.84616 31.2153 8.29872 31.2153 8.85733V22.8407C31.2153 23.3993 31.6682 23.8518 32.2265 23.8518ZM33.2374 9.86819H45.199V21.8298H33.2374V9.86819Z" fill="#2A6FDB"/>
<path d="M47.2213 46.0674V32.0834C47.2213 31.5251 46.7684 31.0725 46.2104 31.0725H32.2265C31.6682 31.0725 31.2153 31.5251 31.2153 32.0834V46.0674C31.2153 46.6257 31.6682 47.0782 32.2265 47.0782H46.2104C46.7684 47.0782 47.2213 46.6257 47.2213 46.0674ZM45.199 45.0562H33.2374V33.0946H45.199V45.0562Z" fill="#2A6FDB"/>
<path d="M46.2103 28.5342C46.7683 28.5342 47.2212 28.0813 47.2212 27.523C47.2212 26.9644 46.7683 26.5122 46.2103 26.5122H28.4832V8.74509C28.4832 8.18679 28.0303 7.73392 27.4723 7.73392C26.9134 7.73392 26.4608 8.18679 26.4608 8.74509V26.5122H8.92797C8.36999 26.5122 7.91711 26.9647 7.91711 27.523C7.91711 28.0817 8.36999 28.5342 8.92797 28.5342H26.4608V46.0672C26.4608 46.6255 26.9134 47.078 27.4723 47.078C28.0303 47.078 28.4832 46.6255 28.4832 46.0672V28.5342H46.2103Z" fill="#2A6FDB"/>
<path d="M13.8243 42.2594H18.0195C18.5778 42.2594 19.0306 41.8066 19.0306 41.2483V37.0532C19.0306 36.4946 18.5778 36.0424 18.0195 36.0424H13.8243C13.2657 36.0424 12.8135 36.4946 12.8135 37.0532V41.2483C12.8135 41.8066 13.2657 42.2594 13.8243 42.2594ZM14.8355 38.0644H17.0086V40.2374H14.8355V38.0644Z" fill="#2A6FDB"/>
<path d="M41.3158 12.7405H37.1207C36.5624 12.7405 36.1095 13.1931 36.1095 13.7514V17.9465C36.1095 18.5048 36.5624 18.9577 37.1207 18.9577H41.3158C41.8744 18.9577 42.327 18.5048 42.327 17.9465V13.7514C42.327 13.1931 41.8744 12.7405 41.3158 12.7405ZM40.3046 16.9357H38.1322V14.7626H40.3046V16.9357Z" fill="#2A6FDB"/>
<path d="M37.1207 42.2594H41.3158C41.8744 42.2594 42.327 41.8066 42.327 41.2483V37.0532C42.327 36.4946 41.8744 36.0424 41.3158 36.0424H37.1207C36.5624 36.0424 36.1095 36.4946 36.1095 37.0532V41.2483C36.1095 41.8066 36.5624 42.2594 37.1207 42.2594ZM38.1322 38.0644H40.3046V40.2374H38.1322V38.0644Z" fill="#2A6FDB"/>
<path d="M2.70275 10.0275C3.26168 10.0275 3.71392 9.57498 3.71392 9.01667V3.76789H8.77167C9.33028 3.76789 9.78315 3.31565 9.78315 2.75704C9.78315 2.19874 9.33028 1.74586 8.77167 1.74586H2.70275C2.14477 1.74586 1.69189 2.19874 1.69189 2.75704V9.01667C1.69189 9.57498 2.14477 10.0275 2.70275 10.0275Z" fill="#2A6FDB"/>
<path d="M52.2435 1.74586H46.1746C45.616 1.74586 45.1631 2.19874 45.1631 2.75704C45.1631 3.31565 45.616 3.76789 46.1746 3.76789H51.2323V9.01667C51.2323 9.57498 51.6846 10.0275 52.2435 10.0275C52.8015 10.0275 53.2543 9.57498 53.2543 9.01667V2.75704C53.2543 2.19874 52.8015 1.74586 52.2435 1.74586Z" fill="#2A6FDB"/>
<path d="M8.77167 51.2425H3.71392V45.9941C3.71392 45.4361 3.26168 44.9832 2.70275 44.9832C2.14477 44.9832 1.69189 45.4361 1.69189 45.9941V52.2537C1.69189 52.812 2.14477 53.2649 2.70275 53.2649H8.77167C9.33028 53.2649 9.78315 52.812 9.78315 52.2537C9.78315 51.6951 9.33028 51.2425 8.77167 51.2425Z" fill="#2A6FDB"/>
<path d="M52.2435 44.9832C51.6846 44.9832 51.2323 45.4361 51.2323 45.9941V51.2425H46.1746C45.616 51.2425 45.1631 51.6951 45.1631 52.2537C45.1631 52.812 45.616 53.2649 46.1746 53.2649H52.2435C52.8015 53.2649 53.2543 52.812 53.2543 52.2537V45.9941C53.2543 45.4361 52.8015 44.9832 52.2435 44.9832Z" fill="#2A6FDB"/>
</svg>
