<svg width="20" height="20" viewBox="0 0 20 20" fill="none" xmlns="http://www.w3.org/2000/svg">
<path d="M2.87952 3.22073V8.30557C2.87952 8.5087 3.0442 8.67327 3.24722 8.67327H8.33217C8.53519 8.67327 8.69987 8.5087 8.69987 8.30557V7.34141C8.69987 7.13827 8.53519 6.97371 8.33217 6.97371C8.12915 6.97371 7.96458 7.13827 7.96458 7.34141V7.93799H3.61491V3.58831H7.96458V7.31809C7.96458 7.52122 8.12915 7.6859 8.33217 7.6859C8.53519 7.6859 8.69987 7.52122 8.69987 7.31809V3.22073C8.69987 3.01759 8.53519 2.85303 8.33217 2.85303H3.24722C3.0442 2.85303 2.87952 3.01759 2.87952 3.22073Z" fill="#171538"/>
<path d="M5.02701 4.63281C4.82388 4.63281 4.65942 4.79738 4.65942 5.0004V6.5259C4.65942 6.72892 4.82388 6.8936 5.02701 6.8936H6.55251C6.75552 6.8936 6.9202 6.72892 6.9202 6.5259V5.0004C6.9202 4.79738 6.75552 4.63281 6.55251 4.63281H5.02701ZM6.18492 6.15832H5.39471V5.3681H6.18492V6.15832Z" fill="#171538"/>
<path d="M8.33217 11.2993H3.24722C3.0442 11.2993 2.87952 11.4639 2.87952 11.6669V16.752C2.87952 16.955 3.0442 17.1196 3.24722 17.1196H8.33217C8.53519 17.1196 8.69987 16.955 8.69987 16.752V11.6669C8.69987 11.4639 8.53519 11.2993 8.33217 11.2993ZM7.96458 16.3843H3.61491V12.0346H7.96458V16.3843Z" fill="#171538"/>
<path d="M11.7188 8.67327H16.8038C17.0067 8.67327 17.1714 8.50871 17.1714 8.30557V3.22073C17.1714 3.01759 17.0067 2.85303 16.8038 2.85303H11.7188C11.5158 2.85303 11.3511 3.01759 11.3511 3.22073V8.30557C11.3511 8.50871 11.5158 8.67327 11.7188 8.67327ZM12.0864 3.58831H16.436V7.93799H12.0864V3.58831Z" fill="#171538"/>
<path d="M17.1714 16.752V11.6669C17.1714 11.4639 17.0067 11.2993 16.8038 11.2993H11.7188C11.5158 11.2993 11.3511 11.4639 11.3511 11.6669V16.752C11.3511 16.955 11.5158 17.1196 11.7188 17.1196H16.8038C17.0067 17.1196 17.1714 16.955 17.1714 16.752ZM16.436 16.3843H12.0864V12.0346H16.436V16.3843Z" fill="#171538"/>
<path d="M16.8037 10.3762C17.0066 10.3762 17.1713 10.2116 17.1713 10.0085C17.1713 9.80541 17.0066 9.64096 16.8037 9.64096H10.3575V3.1802C10.3575 2.97718 10.1928 2.8125 9.98989 2.8125C9.78665 2.8125 9.62208 2.97718 9.62208 3.1802V9.64096H3.24649C3.04359 9.64096 2.87891 9.80553 2.87891 10.0085C2.87891 10.2117 3.04359 10.3762 3.24649 10.3762H9.62208V16.7519C9.62208 16.9549 9.78665 17.1194 9.98989 17.1194C10.1928 17.1194 10.3575 16.9549 10.3575 16.7519V10.3762H16.8037Z" fill="#171538"/>
<path d="M5.02701 15.3672H6.55251C6.75552 15.3672 6.9202 15.2025 6.9202 14.9995V13.474C6.9202 13.2709 6.75552 13.1064 6.55251 13.1064H5.02701C4.82388 13.1064 4.65942 13.2709 4.65942 13.474V14.9995C4.65942 15.2025 4.82388 15.3672 5.02701 15.3672ZM5.39471 13.8417H6.18492V14.6319H5.39471V13.8417Z" fill="#171538"/>
<path d="M15.0239 4.63281H13.4984C13.2954 4.63281 13.1307 4.79738 13.1307 5.0004V6.5259C13.1307 6.72892 13.2954 6.8936 13.4984 6.8936H15.0239C15.2271 6.8936 15.3916 6.72892 15.3916 6.5259V5.0004C15.3916 4.79738 15.2271 4.63281 15.0239 4.63281ZM14.6562 6.15832H13.8663V5.3681H14.6562V6.15832Z" fill="#171538"/>
<path d="M13.4984 15.3672H15.0239C15.2271 15.3672 15.3916 15.2025 15.3916 14.9995V13.474C15.3916 13.2709 15.2271 13.1064 15.0239 13.1064H13.4984C13.2954 13.1064 13.1307 13.2709 13.1307 13.474V14.9995C13.1307 15.2025 13.2954 15.3672 13.4984 15.3672ZM13.8663 13.8417H14.6562V14.6319H13.8663V13.8417Z" fill="#171538"/>
<path d="M0.982819 3.64628C1.18607 3.64628 1.35052 3.48171 1.35052 3.2787V1.37005H3.1897C3.39283 1.37005 3.55751 1.2056 3.55751 1.00246C3.55751 0.799446 3.39283 0.634766 3.1897 0.634766H0.982819C0.779915 0.634766 0.615234 0.799446 0.615234 1.00246V3.2787C0.615234 3.48171 0.779915 3.64628 0.982819 3.64628Z" fill="#171538"/>
<path d="M18.9977 0.634766H16.7908C16.5877 0.634766 16.423 0.799446 16.423 1.00246C16.423 1.2056 16.5877 1.37005 16.7908 1.37005H18.63V3.2787C18.63 3.48171 18.7944 3.64628 18.9977 3.64628C19.2006 3.64628 19.3652 3.48171 19.3652 3.2787V1.00246C19.3652 0.799446 19.2006 0.634766 18.9977 0.634766Z" fill="#171538"/>
<path d="M3.1897 18.6335H1.35052V16.725C1.35052 16.5221 1.18607 16.3574 0.982819 16.3574C0.779915 16.3574 0.615234 16.5221 0.615234 16.725V19.0012C0.615234 19.2043 0.779915 19.3689 0.982819 19.3689H3.1897C3.39283 19.3689 3.55751 19.2043 3.55751 19.0012C3.55751 18.7981 3.39283 18.6335 3.1897 18.6335Z" fill="#171538"/>
<path d="M18.9977 16.3574C18.7944 16.3574 18.63 16.5221 18.63 16.725V18.6335H16.7908C16.5877 18.6335 16.423 18.7981 16.423 19.0012C16.423 19.2043 16.5877 19.3689 16.7908 19.3689H18.9977C19.2006 19.3689 19.3652 19.2043 19.3652 19.0012V16.725C19.3652 16.5221 19.2006 16.3574 18.9977 16.3574Z" fill="#171538"/>
</svg>
