<svg width="20" height="20" viewBox="0 0 20 20" fill="none" xmlns="http://www.w3.org/2000/svg">
<g clip-path="url(#clip0)">
<path opacity="0.8" d="M4.30607 19.6212C4.21563 19.6212 4.12926 19.5878 4.06327 19.5234L0.0986268 15.5482C-0.0325501 15.4187 -0.0325501 15.2044 0.0986268 15.0716L4.06327 11.0914C4.16022 10.9961 4.30607 10.9652 4.43317 11.0189C4.56027 11.0678 4.64175 11.1941 4.64175 11.3318V13.7932H15.5066C15.8073 13.7932 16.0525 13.548 16.0525 13.2489V10.4787C16.0525 10.3883 16.0875 10.3028 16.1495 10.2384L18.8023 7.57493C18.8985 7.47879 19.0468 7.44783 19.1722 7.50079C19.3002 7.55456 19.3825 7.68003 19.3825 7.81528V13.8372C19.3825 15.9882 18.2459 17.124 16.0965 17.124H4.64256V19.2847C4.64256 19.4208 4.56109 19.5438 4.43398 19.5943C4.39325 19.6114 4.3468 19.6212 4.30607 19.6212Z" fill="white"/>
<path opacity="0.8" d="M0.954136 12.5295C0.909324 12.5295 0.866142 12.5197 0.824589 12.5026C0.697486 12.4513 0.61438 12.329 0.61438 12.1905V6.16942C0.61438 4.01763 1.74853 2.88348 3.90032 2.88348H15.3592V0.717028C15.3592 0.582592 15.4414 0.458748 15.5677 0.403344C15.6965 0.353643 15.8407 0.378086 15.9385 0.478302L19.9015 4.45027C20.0335 4.58227 20.0335 4.79818 19.9015 4.92935L15.9385 8.90703C15.8415 9.00562 15.6973 9.03576 15.5685 8.98117C15.4423 8.92984 15.36 8.80518 15.36 8.66667V6.21098H4.48777C4.18875 6.21098 3.94676 6.45541 3.94676 6.75605V9.52706C3.94676 9.61669 3.91173 9.70061 3.84573 9.76824L1.19123 12.4284C1.1285 12.4936 1.04376 12.5295 0.954136 12.5295Z" fill="white"/>
</g>
<defs>
<clipPath id="clip0">
<rect width="20" height="20" fill="white"/>
</clipPath>
</defs>
</svg>
