<svg width="26" height="26" viewBox="0 0 26 26" fill="none" xmlns="http://www.w3.org/2000/svg">
    <rect x="1" y="25" width="24" height="24" rx="12" transform="rotate(-90 1 25)" fill="#2A6FDB" stroke="#F8F9FB"
          stroke-width="2"/>
    <svg width="26" height="26" viewBox="-4 -4 26 26" fill="none" xmlns="http://www.w3.org/2000/svg">
        <path d="M13.5 4.89752H14.25" stroke="#F8F9FB" stroke-linecap="round" stroke-linejoin="round"/>
        <path d="M6.74994 7.85248V12.3975" stroke="#F8F9FB" stroke-linecap="round" stroke-linejoin="round"/>
        <path d="M11.2499 7.85248V12.3975" stroke="#F8F9FB" stroke-linecap="round" stroke-linejoin="round"/>
        <path fill-rule="evenodd" clip-rule="evenodd"
              d="M11.8463 15.354H6.15375C5.24025 15.354 4.5 14.6137 4.5 13.7002V4.896H13.5V13.7002C13.5 14.6137 12.7598 15.354 11.8463 15.354Z"
              stroke="#F8F9FB" stroke-linecap="round" stroke-linejoin="round"/>
        <path d="M12 4.896L11.4465 3.16725C11.3468 2.85675 11.058 2.646 10.7325 2.646H7.2675C6.94125 2.646 6.6525 2.85675 6.5535 3.16725L6 4.896"
              stroke="#F8F9FB" stroke-linecap="round" stroke-linejoin="round"/>
        <path d="M3.75 4.89752H4.5" stroke="#F8F9FB" stroke-linecap="round" stroke-linejoin="round"/>
        <path d="M8.99994 7.85248V12.3975" stroke="#F8F9FB" stroke-linecap="round" stroke-linejoin="round"/>
    </svg>

</svg>
