<svg width="16" height="16" viewBox="0 0 16 16" fill="none" xmlns="http://www.w3.org/2000/svg">
<g clip-path="url(#clip0)">
<path d="M8.00001 16C12.4183 16 16 12.4183 16 8.00001C16 3.58173 12.4183 0 8.00001 0C3.58173 0 0 3.58173 0 8.00001C0 12.4183 3.58173 16 8.00001 16Z" fill="#836A27"/>
<path d="M6.66654 4.1001H8.7151V5.54906L8.36533 9.69613H7.01627L6.6665 5.54906V4.1001H6.66654ZM6.66654 11.2451C6.66654 10.6955 7.11622 10.2458 7.66582 10.2458C8.21542 10.2458 8.6651 10.6955 8.6651 11.2451C8.6651 11.7947 8.21542 12.2444 7.66582 12.2444C7.11622 12.2444 6.66654 11.8446 6.66654 11.2451Z" fill="white"/>
</g>
<defs>
<clipPath id="clip0">
<rect width="16" height="16" fill="white"/>
</clipPath>
</defs>
</svg>
